Nobile-extra-light.ufo
<glyph name="exclam" format="1">
  <advance width="296"/>
  <unicode hex="0021"/>
  <outline>
    <contour>
      <point x="301" y="-18" type="curve" smooth="yes"/>
      <point x="242" y="-18"/>
      <point x="199" y="247"/>
      <point x="199" y="188" type="curve" smooth="yes"/>
      <point x="199" y="130"/>
      <point x="-79" y="84"/>
      <point x="-20" y="84" type="curve" smooth="yes"/>
      <point x="39" y="84"/>
      <point x="81" y="-180"/>
      <point x="81" y="-122" type="curve" smooth="yes"/>
      <point x="81" y="-63"/>
      <point x="360" y="-18"/>
    </contour>
    <contour>
      <point x="343" y="364" type="line"/>
      <point x="231" y="2176" type="line"/>
      <point x="-94" y="1605" type="line"/>
      <point x="136" y="-207" type="line"/>
    </contour>
  </outline>
</glyph>
<glyph name="quotedbl" format="1">
  <advance width="573"/>
  <unicode hex="0022"/>
  <outline>
    <contour>
      <point x="124" y="1194" type="line"/>
      <point x="199" y="1194" type="line"/>
      <point x="191" y="1139"/>
      <point x="244" y="1565"/>
      <point x="234" y="1490" type="curve" smooth="yes"/>
      <point x="237" y="1510"/>
      <point x="232" y="1546"/>
      <point x="232" y="1580" type="curve" smooth="yes"/>
      <point x="77" y="1580" type="line"/>
      <point x="77" y="1546"/>
      <point x="70" y="1526"/>
      <point x="74" y="1493" type="curve"/>
    </contour>
    <contour>
      <point x="390" y="1194" type="line"/>
      <point x="460" y="1194" type="line"/>
      <point x="452" y="1138"/>
      <point x="504" y="1555"/>
      <point x="495" y="1486" type="curve" smooth="yes"/>
      <point x="498" y="1508"/>
      <point x="493" y="1546"/>
      <point x="493" y="1580" type="curve" smooth="yes"/>
      <point x="338" y="1580" type="line"/>
      <point x="338" y="1546"/>
      <point x="332" y="1519"/>
      <point x="336" y="1487" type="curve"/>
    </contour>
  </outline>
</glyph>
<glyph name="dollar" format="1">
  <advance width="828"/>
  <unicode hex="0024"/>
  <outline>
    <contour>
      <point x="390" y="-195" type="line"/>
      <point x="490" y="-195" type="line"/>
      <point x="490" y="-9" type="line"/>
      <point x="649" y="6"/>
      <point x="809" y="69"/>
      <point x="809" y="262" type="curve" smooth="yes"/>
      <point x="809" y="437"/>
      <point x="685" y="493"/>
      <point x="558" y="545" type="curve" smooth="yes"/>
      <point x="508" y="565"/>
      <point x="541" y="551"/>
      <point x="490" y="569" type="curve"/>
      <point x="490" y="981" type="line"/>
      <point x="565" y="977"/>
      <point x="648" y="979"/>
      <point x="727" y="941" type="curve"/>
      <point x="761" y="1004" type="line"/>
      <point x="812" y="978"/>
      <point x="531" y="1050"/>
      <point x="490" y="1045" type="curve"/>
      <point x="490" y="1217" type="line"/>
      <point x="390" y="1217" type="line"/>
      <point x="390" y="1048" type="line"/>
      <point x="259" y="1038"/>
      <point x="49" y="973"/>
      <point x="49" y="801" type="curve" smooth="yes"/>
      <point x="49" y="601"/>
      <point x="160" y="548"/>
      <point x="276" y="517" type="curve" smooth="yes"/>
      <point x="358" y="490"/>
      <point x="298" y="533"/>
      <point x="390" y="513" type="curve"/>
      <point x="390" y="70" type="line"/>
      <point x="307" y="89"/>
      <point x="316" y="66"/>
      <point x="161" y="123" type="curve" smooth="yes"/>
      <point x="121" y="44" type="line"/>
      <point x="255" y="5"/>
      <point x="315" y="-1"/>
      <point x="390" y="-11" type="curve"/>
    </contour>
    <contour>
      <point x="390" y="602" type="line"/>
      <point x="303" y="603"/>
      <point x="122" y="647"/>
      <point x="122" y="792" type="curve" smooth="yes"/>
      <point x="122" y="963"/>
      <point x="265" y="984"/>
      <point x="390" y="982" type="curve"/>
    </contour>
    <contour>
      <point x="490" y="71" type="curve"/>
      <point x="490" y="486" type="line"/>
      <point x="589" y="449"/>
      <point x="736" y="423"/>
      <point x="736" y="271" type="curve" smooth="yes"/>
      <point x="736" y="133"/>
      <point x="613" y="64"/>
    </contour>
  </outline>
</glyph>
<glyph name="percent" format="1">
  <advance width="1398"/>
  <unicode hex="0025"/>
  <outline>
    <contour>
      <point x="288" y="719" type="curve" smooth="yes"/>
      <point x="81" y="719"/>
      <point x="83" y="963"/>
      <point x="83" y="1061" type="curve" smooth="yes"/>
      <point x="83" y="1168"/>
      <point x="94" y="1397"/>
      <point x="288" y="1397" type="curve" smooth="yes"/>
      <point x="486" y="1397"/>
      <point x="491" y="1159"/>
      <point x="491" y="1061" type="curve" smooth="yes"/>
      <point x="491" y="951"/>
      <point x="488" y="719"/>
    </contour>
    <contour>
      <point x="288" y="660" type="curve" smooth="yes"/>
      <point x="461" y="660"/>
      <point x="565" y="815"/>
      <point x="565" y="1028" type="curve" smooth="yes"/>
      <point x="565" y="1261"/>
      <point x="503" y="1450"/>
      <point x="293" y="1450" type="curve" smooth="yes"/>
      <point x="-8" y="1450"/>
      <point x="3" y="1165"/>
      <point x="3" y="1039" type="curve" smooth="yes"/>
      <point x="3" y="816"/>
      <point x="108" y="660"/>
    </contour>
    <contour>
      <point x="435" y="24" type="line"/>
      <point x="1066" y="1343" type="line"/>
      <point x="989" y="1402" type="line"/>
      <point x="353" y="72" type="line"/>
    </contour>
    <contour>
      <point x="1121" y="26" type="curve" smooth="yes"/>
      <point x="912" y="26"/>
      <point x="915" y="270"/>
      <point x="915" y="368" type="curve" smooth="yes"/>
      <point x="915" y="475"/>
      <point x="925" y="705"/>
      <point x="1121" y="705" type="curve" smooth="yes"/>
      <point x="1317" y="705"/>
      <point x="1324" y="466"/>
      <point x="1324" y="368" type="curve" smooth="yes"/>
      <point x="1324" y="259"/>
      <point x="1320" y="26"/>
    </contour>
    <contour>
      <point x="1121" y="-32" type="curve"/>
      <point x="1297" y="-34"/>
      <point x="1398" y="129"/>
      <point x="1398" y="335" type="curve" smooth="yes"/>
      <point x="1398" y="565"/>
      <point x="1336" y="757"/>
      <point x="1125" y="757" type="curve" smooth="yes"/>
      <point x="824" y="757"/>
      <point x="835" y="473"/>
      <point x="835" y="347" type="curve" smooth="yes"/>
      <point x="835" y="123"/>
      <point x="941" y="-32"/>
    </contour>
  </outline>
</glyph>
<glyph name="quotesingle" format="1">
  <advance width="172"/>
  <unicode hex="0027"/>
  <outline>
    <contour>
      <point x="57" y="1194" type="line"/>
      <point x="127" y="1194" type="line"/>
      <point x="119" y="1140"/>
      <point x="173" y="1568"/>
      <point x="162" y="1491" type="curve" smooth="yes"/>
      <point x="165" y="1510"/>
      <point x="160" y="1546"/>
      <point x="160" y="1580" type="curve" smooth="yes"/>
      <point x="10" y="1580" type="line"/>
      <point x="10" y="1546"/>
      <point x="3" y="1522"/>
      <point x="8" y="1490" type="curve"/>
    </contour>
  </outline>
</glyph>
<glyph name="parenleft" format="1">
  <advance width="274"/>
  <unicode hex="0028"/>
  <outline>
    <contour>
      <point x="287" y="-151" type="curve"/>
      <point x="329" y="-99" type="line"/>
      <point x="107" y="58"/>
      <point x="50" y="502"/>
      <point x="50" y="702" type="curve" smooth="yes"/>
      <point x="50" y="941"/>
      <point x="125" y="1309"/>
      <point x="356" y="1506" type="curve"/>
      <point x="271" y="1550" type="line"/>
      <point x="7" y="1366"/>
      <point x="-65" y="939"/>
      <point x="-65" y="705" type="curve" smooth="yes"/>
      <point x="-65" y="473"/>
      <point x="6" y="12"/>
    </contour>
  </outline>
</glyph>
<glyph name="parenright" format="1">
  <advance width="277"/>
  <unicode hex="0029"/>
  <outline>
    <contour>
      <point x="-4" y="-151" type="line"/>
      <point x="292" y="47"/>
      <point x="350" y="452"/>
      <point x="350" y="719" type="curve" smooth="yes"/>
      <point x="350" y="962"/>
      <point x="274" y="1376"/>
      <point x="-1" y="1556" type="curve"/>
      <point x="-44" y="1503" type="line"/>
      <point x="179" y="1329"/>
      <point x="234" y="907"/>
      <point x="234" y="694" type="curve" smooth="yes"/>
      <point x="234" y="463"/>
      <point x="155" y="86"/>
      <point x="-72" y="-102" type="curve"/>
    </contour>
  </outline>
</glyph>
<glyph name="asterisk" format="1">
  <advance width="1020"/>
  <unicode hex="002A"/>
  <outline>
    <contour>
      <point x="663" y="831" type="line"/>
      <point x="729" y="864" type="line"/>
      <point x="547" y="1148" type="line"/>
      <point x="875" y="1148" type="line"/>
      <point x="875" y="1204" type="line"/>
      <point x="546" y="1204" type="line"/>
      <point x="709" y="1484" type="line"/>
      <point x="739" y="1466"/>
      <point x="609" y="1539"/>
      <point x="639" y="1521" type="curve"/>
      <point x="655" y="1547"/>
      <point x="457" y="1152"/>
      <point x="502" y="1229" type="curve"/>
      <point x="361" y="1521" type="line"/>
      <point x="291" y="1482" type="line"/>
      <point x="454" y="1204" type="line"/>
      <point x="134" y="1204" type="line"/>
      <point x="134" y="1148" type="line"/>
      <point x="451" y="1148" type="line"/>
      <point x="270" y="864" type="line"/>
      <point x="240" y="882"/>
      <point x="367" y="811"/>
      <point x="337" y="829" type="curve"/>
      <point x="327" y="812"/>
      <point x="552" y="1215"/>
      <point x="499" y="1123" type="curve"/>
    </contour>
  </outline>
</glyph>
<glyph name="comma" format="1">
  <advance width="415"/>
  <unicode hex="002C"/>
  <outline>
    <contour>
      <point x="145" y="-224" type="line"/>
      <point x="279" y="-186"/>
      <point x="307" y="-69"/>
      <point x="307" y="39" type="curve" smooth="yes"/>
      <point x="307" y="228" type="line"/>
      <point x="99" y="228" type="line"/>
      <point x="99" y="0" type="line"/>
      <point x="205" y="0" type="line"/>
      <point x="206" y="-91"/>
      <point x="163" y="-121"/>
      <point x="100" y="-141" type="curve"/>
    </contour>
  </outline>
</glyph>
<glyph name="hyphen" format="1">
  <advance width="817"/>
  <unicode hex="002D"/>
  <outline>
    <contour>
      <point x="105" y="473" type="line"/>
      <point x="718" y="473" type="line"/>
      <point x="718" y="573" type="line"/>
      <point x="105" y="573" type="line"/>
    </contour>
  </outline>
</glyph>
<glyph name="zero" format="1">
  <advance width="1330"/>
  <unicode hex="0030"/>
  <outline>
    <contour>
      <point x="664" y="46" type="curve" smooth="yes"/>
      <point x="326" y="46"/>
      <point x="215" y="316"/>
      <point x="215" y="592" type="curve" smooth="yes"/>
      <point x="215" y="884"/>
      <point x="324" y="1135"/>
      <point x="664" y="1135" type="curve" smooth="yes"/>
      <point x="991" y="1135"/>
      <point x="1116" y="891"/>
      <point x="1116" y="608" type="curve" smooth="yes"/>
      <point x="1116" y="324"/>
      <point x="1017" y="46"/>
    </contour>
    <contour>
      <point x="665" y="-33" type="curve" smooth="yes"/>
      <point x="1030" y="-33"/>
      <point x="1225" y="254"/>
      <point x="1225" y="594" type="curve" smooth="yes"/>
      <point x="1225" y="930"/>
      <point x="1025" y="1212"/>
      <point x="664" y="1212" type="curve" smooth="yes"/>
      <point x="293" y="1212"/>
      <point x="106" y="929"/>
      <point x="106" y="590" type="curve" smooth="yes"/>
      <point x="106" y="258"/>
      <point x="305" y="-33"/>
    </contour>
  </outline>
</glyph>
<glyph name="one" format="1">
  <advance width="510"/>
  <unicode hex="0031"/>
  <outline>
    <contour>
      <point x="347" y="0" type="line"/>
      <point x="448" y="0" type="line"/>
      <point x="448" y="1219" type="line"/>
      <point x="333" y="1219" type="line"/>
      <point x="82" y="1094" type="line"/>
      <point x="113" y="1028" type="line"/>
      <point x="347" y="1145" type="line"/>
    </contour>
  </outline>
</glyph>
<glyph name="two" format="1">
  <advance width="990"/>
  <unicode hex="0032"/>
  <outline>
    <contour>
      <point x="91" y="0" type="line"/>
      <point x="883" y="0" type="line"/>
      <point x="883" y="90" type="line"/>
      <point x="167" y="90" type="line"/>
      <point x="286" y="186"/>
      <point x="376" y="232"/>
      <point x="536" y="364" type="curve" smooth="yes"/>
      <point x="676" y="473"/>
      <point x="867" y="660"/>
      <point x="867" y="851" type="curve" smooth="yes"/>
      <point x="867" y="1095"/>
      <point x="718" y="1202"/>
      <point x="477" y="1202" type="curve" smooth="yes"/>
      <point x="386" y="1202"/>
      <point x="327" y="1227"/>
      <point x="197" y="1132" type="curve"/>
      <point x="229" y="1081" type="line"/>
      <point x="319" y="1110"/>
      <point x="366" y="1129"/>
      <point x="455" y="1128" type="curve"/>
      <point x="612" y="1128"/>
      <point x="796" y="1073"/>
      <point x="796" y="878" type="curve" smooth="yes"/>
      <point x="796" y="685"/>
      <point x="685" y="589"/>
      <point x="544" y="474" type="curve" smooth="yes"/>
      <point x="91" y="108" type="line"/>
    </contour>
  </outline>
</glyph>
<glyph name="seven" format="1">
  <advance width="1108"/>
  <unicode hex="0037"/>
  <outline>
    <contour>
      <point x="402" y="-144" type="line"/>
      <point x="966" y="1170" type="line"/>
      <point x="922" y="1261" type="line"/>
      <point x="108" y="1261" type="line"/>
      <point x="108" y="1161" type="line"/>
      <point x="848" y="1161" type="line"/>
      <point x="303" y="-98" type="line"/>
    </contour>
  </outline>
</glyph>
<glyph name="nine" format="1">
  <advance width="1219"/>
  <unicode hex="0039"/>
  <outline>
    <contour>
      <point x="411" y="-103" type="line"/>
      <point x="905" y="14"/>
      <point x="1093" y="374"/>
      <point x="1093" y="787" type="curve" smooth="yes"/>
      <point x="1093" y="1100"/>
      <point x="973" y="1382"/>
      <point x="621" y="1382" type="curve" smooth="yes"/>
      <point x="322" y="1382"/>
      <point x="114" y="1190"/>
      <point x="114" y="886" type="curve" smooth="yes"/>
      <point x="114" y="594"/>
      <point x="316" y="429"/>
      <point x="594" y="429" type="curve" smooth="yes"/>
      <point x="757" y="429"/>
      <point x="907" y="485"/>
      <point x="994" y="627" type="curve"/>
      <point x="962" y="270"/>
      <point x="684" y="38"/>
      <point x="387" y="-22" type="curve"/>
    </contour>
    <contour>
      <point x="551" y="509" type="curve" smooth="yes"/>
      <point x="323" y="509"/>
      <point x="216" y="702"/>
      <point x="216" y="897" type="curve"/>
      <point x="215" y="1112"/>
      <point x="374" y="1303"/>
      <point x="609" y="1303" type="curve" smooth="yes"/>
      <point x="907" y="1303"/>
      <point x="993" y="1061"/>
      <point x="992" y="815" type="curve"/>
      <point x="992" y="752"/>
      <point x="1000" y="763"/>
      <point x="991" y="702" type="curve"/>
      <point x="926" y="588"/>
      <point x="672" y="509"/>
    </contour>
  </outline>
</glyph>
<glyph name="colon" format="1">
  <advance width="404"/>
  <unicode hex="003A"/>
  <outline>
    <contour>
      <point x="102" y="0" type="line"/>
      <point x="303" y="0" type="line"/>
      <point x="303" y="200" type="line"/>
      <point x="102" y="200" type="line"/>
    </contour>
    <contour>
      <point x="102" y="501" type="line"/>
      <point x="303" y="501" type="line"/>
      <point x="303" y="703" type="line"/>
      <point x="102" y="703" type="line"/>
    </contour>
  </outline>
</glyph>
<glyph name="semicolon" format="1">
  <advance width="420"/>
  <unicode hex="003B"/>
  <outline>
    <contour>
      <point x="138" y="-224" type="line"/>
      <point x="272" y="-186"/>
      <point x="301" y="-69"/>
      <point x="301" y="39" type="curve" smooth="yes"/>
      <point x="301" y="228" type="line"/>
      <point x="92" y="228" type="line"/>
      <point x="92" y="0" type="line"/>
      <point x="197" y="0" type="line"/>
      <point x="199" y="-91"/>
      <point x="155" y="-121"/>
      <point x="93" y="-141" type="curve"/>
    </contour>
    <contour>
      <point x="94" y="501" type="line"/>
      <point x="302" y="501" type="line"/>
      <point x="302" y="703" type="line"/>
      <point x="94" y="703" type="line"/>
    </contour>
  </outline>
</glyph>
<glyph name="equal" format="1">
  <advance width="646"/>
  <unicode hex="003D"/>
  <outline>
    <contour>
      <point x="148" y="286" type="line"/>
      <point x="517" y="286" type="line"/>
      <point x="517" y="362" type="line"/>
      <point x="148" y="362" type="line"/>
    </contour>
    <contour>
      <point x="148" y="435" type="line"/>
      <point x="517" y="435" type="line"/>
      <point x="517" y="511" type="line"/>
      <point x="148" y="511" type="line"/>
    </contour>
  </outline>
</glyph>
<glyph name="at" format="1">
  <advance width="1827"/>
  <unicode hex="0040"/>
  <outline>
    <contour>
      <point x="901" y="31" type="curve" smooth="yes"/>
      <point x="1013" y="31"/>
      <point x="1243" y="73"/>
      <point x="1381" y="112" type="curve"/>
      <point x="1344" y="212" type="line"/>
      <point x="1244" y="169"/>
      <point x="1046" y="120"/>
      <point x="899" y="120" type="curve" smooth="yes"/>
      <point x="533" y="120"/>
      <point x="198" y="345"/>
      <point x="212" y="793" type="curve" smooth="yes"/>
      <point x="227" y="1243"/>
      <point x="497" y="1519"/>
      <point x="957" y="1519" type="curve" smooth="yes"/>
      <point x="1312" y="1519"/>
      <point x="1599" y="1381"/>
      <point x="1599" y="956" type="curve" smooth="yes"/>
      <point x="1599" y="685"/>
      <point x="1465" y="446"/>
      <point x="1377" y="446" type="curve" smooth="yes"/>
      <point x="1348" y="446"/>
      <point x="1322" y="478"/>
      <point x="1342" y="541" type="curve"/>
      <point x="1342" y="541"/>
      <point x="1361" y="1210"/>
      <point x="1361" y="1204" type="curve" smooth="yes"/>
      <point x="1373" y="1251"/>
      <point x="1344" y="1308"/>
      <point x="1066" y="1306" type="curve" smooth="yes"/>
      <point x="779" y="1305"/>
      <point x="488" y="1096"/>
      <point x="440" y="748" type="curve" smooth="yes"/>
      <point x="407" y="540"/>
      <point x="462" y="365"/>
      <point x="742" y="366" type="curve" smooth="yes"/>
      <point x="974" y="368"/>
      <point x="1191" y="560"/>
      <point x="1256" y="851" type="curve"/>
      <point x="1257" y="787"/>
      <point x="1255" y="570"/>
      <point x="1255" y="495" type="curve" smooth="yes"/>
      <point x="1255" y="402"/>
      <point x="1274" y="359"/>
      <point x="1345" y="359" type="curve" smooth="yes"/>
      <point x="1473" y="359"/>
      <point x="1695" y="597"/>
      <point x="1695" y="934" type="curve" smooth="yes"/>
      <point x="1695" y="1421"/>
      <point x="1354" y="1605"/>
      <point x="936" y="1605" type="curve" smooth="yes"/>
      <point x="503" y="1605"/>
      <point x="129" y="1312"/>
      <point x="112" y="793" type="curve" smooth="yes"/>
      <point x="95" y="276"/>
      <point x="454" y="31"/>
    </contour>
    <contour>
      <point x="773" y="463" type="curve"/>
      <point x="575" y="461"/>
      <point x="526" y="579"/>
      <point x="549" y="761" type="curve" smooth="yes"/>
      <point x="584" y="1001"/>
      <point x="790" y="1237"/>
      <point x="1071" y="1237" type="curve" smooth="yes"/>
      <point x="1119" y="1239"/>
      <point x="1160" y="1238"/>
      <point x="1246" y="1221" type="curve" smooth="yes"/>
      <point x="1204" y="833"/>
      <point x="1198" y="461"/>
    </contour>
  </outline>
</glyph>
<glyph name="A" format="1">
  <advance width="1357"/>
  <unicode hex="0041"/>
  <outline>
    <contour>
      <point x="43" y="0" type="line"/>
      <point x="146" y="0" type="line"/>
      <point x="276" y="401" type="line"/>
      <point x="1082" y="401" type="line"/>
      <point x="1211" y="0" type="line"/>
      <point x="1314" y="0" type="line"/>
      <point x="800" y="1580" type="line"/>
      <point x="557" y="1580" type="line"/>
    </contour>
    <contour>
      <point x="301" y="462" type="line"/>
      <point x="675" y="1601" type="line"/>
      <point x="1056" y="462" type="line"/>
    </contour>
  </outline>
</glyph>
<glyph name="B" format="1">
  <advance width="1287"/>
  <unicode hex="0042"/>
  <outline>
    <contour>
      <point x="141" y="0" type="line"/>
      <point x="498" y="0" type="line" smooth="yes"/>
      <point x="787" y="0"/>
      <point x="1207" y="36"/>
      <point x="1207" y="420" type="curve" smooth="yes"/>
      <point x="1207" y="691"/>
      <point x="1055" y="845"/>
      <point x="782" y="872" type="curve"/>
      <point x="997" y="908"/>
      <point x="1111" y="980"/>
      <point x="1111" y="1203" type="curve" smooth="yes"/>
      <point x="1111" y="1575"/>
      <point x="772" y="1580"/>
      <point x="471" y="1580" type="curve" smooth="yes"/>
      <point x="141" y="1580" type="line"/>
    </contour>
    <contour>
      <point x="241" y="84" type="line"/>
      <point x="241" y="827" type="line"/>
      <point x="572" y="827" type="line" smooth="yes"/>
      <point x="838" y="827"/>
      <point x="1122" y="796"/>
      <point x="1122" y="467" type="curve" smooth="yes"/>
      <point x="1122" y="106"/>
      <point x="818" y="84"/>
      <point x="524" y="84" type="curve" smooth="yes"/>
    </contour>
    <contour>
      <point x="241" y="905" type="line"/>
      <point x="241" y="1497" type="line"/>
      <point x="428" y="1497" type="line" smooth="yes"/>
      <point x="641" y="1497"/>
      <point x="1033" y="1516"/>
      <point x="1033" y="1216" type="curve" smooth="yes"/>
      <point x="1033" y="924"/>
      <point x="807" y="905"/>
      <point x="564" y="905" type="curve" smooth="yes"/>
    </contour>
  </outline>
</glyph>
<glyph name="C" format="1">
  <advance width="1270"/>
  <unicode hex="0043"/>
  <outline>
    <contour>
      <point x="777" y="-16" type="curve" smooth="yes"/>
      <point x="917" y="-16"/>
      <point x="1054" y="38"/>
      <point x="1204" y="122" type="curve"/>
      <point x="1161" y="194" type="line"/>
      <point x="1064" y="141"/>
      <point x="903" y="76"/>
      <point x="766" y="75" type="curve" smooth="yes"/>
      <point x="280" y="72"/>
      <point x="219" y="469"/>
      <point x="219" y="785" type="curve" smooth="yes"/>
      <point x="219" y="1092"/>
      <point x="294" y="1515"/>
      <point x="788" y="1508" type="curve" smooth="yes"/>
      <point x="926" y="1503"/>
      <point x="1074" y="1435"/>
      <point x="1121" y="1409" type="curve"/>
      <point x="1160" y="1479" type="line"/>
      <point x="1097" y="1519"/>
      <point x="978" y="1595"/>
      <point x="796" y="1597" type="curve" smooth="yes"/>
      <point x="270" y="1605"/>
      <point x="120" y="1218"/>
      <point x="120" y="786" type="curve" smooth="yes"/>
      <point x="120" y="391"/>
      <point x="235" y="-16"/>
    </contour>
  </outline>
</glyph>
<glyph name="D" format="1">
  <advance width="1418"/>
  <unicode hex="0044"/>
  <outline>
    <contour>
      <point x="241" y="84" type="line"/>
      <point x="241" y="1495" type="line"/>
      <point x="717" y="1495" type="line" smooth="yes"/>
      <point x="1101" y="1495"/>
      <point x="1197" y="1090"/>
      <point x="1197" y="791" type="curve" smooth="yes"/>
      <point x="1197" y="490"/>
      <point x="1114" y="84"/>
      <point x="717" y="84" type="curve" smooth="yes"/>
    </contour>
    <contour>
      <point x="141" y="0" type="line"/>
      <point x="696" y="0" type="line" smooth="yes"/>
      <point x="1178" y="0"/>
      <point x="1297" y="384"/>
      <point x="1297" y="791" type="curve" smooth="yes"/>
      <point x="1297" y="1195"/>
      <point x="1175" y="1580"/>
      <point x="696" y="1580" type="curve" smooth="yes"/>
      <point x="141" y="1580" type="line"/>
    </contour>
  </outline>
</glyph>
<glyph name="E" format="1">
  <advance width="1089"/>
  <unicode hex="0045"/>
  <outline>
    <contour>
      <point x="141" y="0" type="line"/>
      <point x="1060" y="0" type="line"/>
      <point x="1060" y="76" type="line"/>
      <point x="242" y="76" type="line"/>
      <point x="242" y="815" type="line"/>
      <point x="933" y="815" type="line"/>
      <point x="933" y="871" type="line"/>
      <point x="242" y="871" type="line"/>
      <point x="242" y="1504" type="line"/>
      <point x="1046" y="1504" type="line"/>
      <point x="1046" y="1580" type="line"/>
      <point x="141" y="1580" type="line"/>
    </contour>
  </outline>
</glyph>
<glyph name="F" format="1">
  <advance width="1039"/>
  <unicode hex="0046"/>
  <outline>
    <contour>
      <point x="141" y="0" type="line"/>
      <point x="245" y="0" type="line"/>
      <point x="245" y="819" type="line"/>
      <point x="927" y="819" type="line"/>
      <point x="927" y="878" type="line"/>
      <point x="245" y="878" type="line"/>
      <point x="245" y="1504" type="line"/>
      <point x="975" y="1504" type="line"/>
      <point x="975" y="1580" type="line"/>
      <point x="141" y="1580" type="line"/>
    </contour>
  </outline>
</glyph>
<glyph name="G" format="1">
  <advance width="1411"/>
  <unicode hex="0047"/>
  <outline>
    <contour>
      <point x="727" y="-48" type="curve" smooth="yes"/>
      <point x="914" y="-48"/>
      <point x="1200" y="-14"/>
      <point x="1248" y="235" type="curve"/>
      <point x="1303" y="0" type="line"/>
      <point x="1321" y="0" type="line"/>
      <point x="1321" y="775" type="line"/>
      <point x="775" y="775" type="line"/>
      <point x="775" y="700" type="line"/>
      <point x="1200" y="700" type="line"/>
      <point x="1200" y="445" type="line"/>
      <point x="1256" y="139"/>
      <point x="1018" y="43"/>
      <point x="779" y="43" type="curve" smooth="yes"/>
      <point x="266" y="43"/>
      <point x="219" y="476"/>
      <point x="219" y="790" type="curve" smooth="yes"/>
      <point x="219" y="1084"/>
      <point x="274" y="1523"/>
      <point x="767" y="1523" type="curve" smooth="yes"/>
      <point x="883" y="1523"/>
      <point x="1035" y="1498"/>
      <point x="1131" y="1414" type="curve"/>
      <point x="1176" y="1486" type="line"/>
      <point x="1056" y="1569"/>
      <point x="940" y="1614"/>
      <point x="781" y="1614" type="curve" smooth="yes"/>
      <point x="236" y="1614"/>
      <point x="120" y="1193"/>
      <point x="120" y="795" type="curve" smooth="yes"/>
      <point x="120" y="466"/>
      <point x="242" y="-48"/>
    </contour>
  </outline>
</glyph>
<glyph name="H" format="1">
  <advance width="1459"/>
  <unicode hex="0048"/>
  <outline>
    <contour>
      <point x="141" y="0" type="line"/>
      <point x="241" y="0" type="line"/>
      <point x="241" y="796" type="line"/>
      <point x="1218" y="796" type="line"/>
      <point x="1218" y="0" type="line"/>
      <point x="1319" y="0" type="line"/>
      <point x="1319" y="1580" type="line"/>
      <point x="1218" y="1580" type="line"/>
      <point x="1218" y="852" type="line"/>
      <point x="241" y="852" type="line"/>
      <point x="241" y="1580" type="line"/>
      <point x="141" y="1580" type="line"/>
    </contour>
  </outline>
</glyph>
<glyph name="J" format="1">
  <advance width="634"/>
  <unicode hex="004A"/>
  <outline>
    <contour>
      <point x="94" y="-92" type="line"/>
      <point x="502" y="-97"/>
      <point x="494" y="207"/>
      <point x="494" y="518" type="curve" smooth="yes"/>
      <point x="494" y="1580" type="line"/>
      <point x="396" y="1580" type="line"/>
      <point x="396" y="465" type="line" smooth="yes"/>
      <point x="396" y="172"/>
      <point x="417" y="29"/>
      <point x="72" y="-26" type="curve"/>
    </contour>
  </outline>
</glyph>
<glyph name="K" format="1">
  <advance width="1198"/>
  <unicode hex="004B"/>
  <outline>
    <contour>
      <point x="141" y="0" type="line"/>
      <point x="241" y="0" type="line"/>
      <point x="241" y="790" type="line"/>
      <point x="298" y="790" type="line"/>
      <point x="1075" y="0" type="line"/>
      <point x="1196" y="0" type="line"/>
      <point x="374" y="829" type="line"/>
      <point x="1141" y="1580" type="line"/>
      <point x="1038" y="1580" type="line"/>
      <point x="278" y="859" type="line"/>
      <point x="241" y="859" type="line"/>
      <point x="241" y="1580" type="line"/>
      <point x="141" y="1580" type="line"/>
    </contour>
  </outline>
</glyph>
<glyph name="L" format="1">
  <advance width="1116"/>
  <unicode hex="004C"/>
  <outline>
    <contour>
      <point x="141" y="0" type="line"/>
      <point x="1054" y="0" type="line"/>
      <point x="1054" y="76" type="line"/>
      <point x="242" y="76" type="line"/>
      <point x="242" y="1580" type="line"/>
      <point x="141" y="1580" type="line"/>
    </contour>
  </outline>
</glyph>
<glyph name="M" format="1">
  <advance width="1739"/>
  <unicode hex="004D"/>
  <outline>
    <contour>
      <point x="141" y="0" type="line"/>
      <point x="244" y="0" type="line"/>
      <point x="244" y="1567" type="line"/>
      <point x="825" y="172" type="line"/>
      <point x="896" y="172" type="line"/>
      <point x="1497" y="1567" type="line"/>
      <point x="1497" y="0" type="line"/>
      <point x="1598" y="0" type="line"/>
      <point x="1598" y="1580" type="line"/>
      <point x="1400" y="1580" type="line"/>
      <point x="873" y="273" type="line"/>
      <point x="339" y="1580" type="line"/>
      <point x="141" y="1580" type="line"/>
    </contour>
  </outline>
</glyph>
<glyph name="O" format="1">
  <advance width="1488"/>
  <unicode hex="004F"/>
  <outline>
    <contour>
      <point x="742" y="75" type="curve" smooth="yes"/>
      <point x="299" y="75"/>
      <point x="219" y="453"/>
      <point x="219" y="781" type="curve" smooth="yes"/>
      <point x="219" y="1105"/>
      <point x="299" y="1506"/>
      <point x="742" y="1506" type="curve" smooth="yes"/>
      <point x="1187" y="1506"/>
      <point x="1269" y="1107"/>
      <point x="1269" y="781" type="curve" smooth="yes"/>
      <point x="1269" y="450"/>
      <point x="1181" y="75"/>
    </contour>
    <contour>
      <point x="742" y="-16" type="curve" smooth="yes"/>
      <point x="1217" y="-16"/>
      <point x="1367" y="371"/>
      <point x="1367" y="781" type="curve" smooth="yes"/>
      <point x="1367" y="1202"/>
      <point x="1229" y="1597"/>
      <point x="742" y="1597" type="curve" smooth="yes"/>
      <point x="268" y="1597"/>
      <point x="120" y="1167"/>
      <point x="120" y="781" type="curve" smooth="yes"/>
      <point x="120" y="371"/>
      <point x="270" y="-16"/>
    </contour>
  </outline>
</glyph>
<glyph name="Q" format="1">
  <advance width="1508"/>
  <unicode hex="0051"/>
  <outline>
    <contour>
      <point x="1207" y="-426" type="line"/>
      <point x="1297" y="-325" type="line"/>
      <point x="869" y="-27" type="line"/>
      <point x="1266" y="37"/>
      <point x="1385" y="445"/>
      <point x="1385" y="781" type="curve" smooth="yes"/>
      <point x="1385" y="1193"/>
      <point x="1265" y="1614"/>
      <point x="762" y="1614" type="curve" smooth="yes"/>
      <point x="264" y="1614"/>
      <point x="123" y="1188"/>
      <point x="123" y="794" type="curve" smooth="yes"/>
      <point x="123" y="428"/>
      <point x="246" y="-1"/>
      <point x="694" y="-45" type="curve"/>
    </contour>
    <contour>
      <point x="762" y="43" type="curve" smooth="yes"/>
      <point x="308" y="43"/>
      <point x="223" y="452"/>
      <point x="223" y="781" type="curve" smooth="yes"/>
      <point x="223" y="1105"/>
      <point x="301" y="1524"/>
      <point x="762" y="1524" type="curve" smooth="yes"/>
      <point x="1207" y="1524"/>
      <point x="1285" y="1134"/>
      <point x="1285" y="781" type="curve" smooth="yes"/>
      <point x="1285" y="453"/>
      <point x="1221" y="43"/>
    </contour>
  </outline>
</glyph>
<glyph name="R" format="1">
  <advance width="1304"/>
  <unicode hex="0052"/>
  <outline>
    <contour>
      <point x="141" y="0" type="line"/>
      <point x="241" y="0" type="line"/>
      <point x="241" y="769" type="line"/>
      <point x="634" y="769" type="line" smooth="yes"/>
      <point x="1076" y="769"/>
      <point x="1104" y="677"/>
      <point x="1114" y="372" type="curve" smooth="yes"/>
      <point x="1123" y="0" type="line"/>
      <point x="1201" y="0" type="line"/>
      <point x="1192" y="369" type="line" smooth="yes"/>
      <point x="1185" y="590"/>
      <point x="1114" y="802"/>
      <point x="970" y="811" type="curve"/>
      <point x="1097" y="861"/>
      <point x="1198" y="1001"/>
      <point x="1198" y="1158" type="curve" smooth="yes"/>
      <point x="1198" y="1656"/>
      <point x="725" y="1580"/>
      <point x="493" y="1580" type="curve" smooth="yes"/>
      <point x="141" y="1580" type="line"/>
    </contour>
    <contour>
      <point x="241" y="842" type="line"/>
      <point x="241" y="1480" type="line"/>
      <point x="517" y="1480" type="line" smooth="yes"/>
      <point x="787" y="1480"/>
      <point x="1135" y="1550"/>
      <point x="1135" y="1166" type="curve" smooth="yes"/>
      <point x="1135" y="857"/>
      <point x="921" y="842"/>
      <point x="768" y="842" type="curve" smooth="yes"/>
    </contour>
  </outline>
</glyph>
<glyph name="S" format="1">
  <advance width="1190"/>
  <unicode hex="0053"/>
  <outline>
    <contour>
      <point x="553" y="-16" type="curve" smooth="yes"/>
      <point x="852" y="-16"/>
      <point x="1105" y="55"/>
      <point x="1105" y="406" type="curve" smooth="yes"/>
      <point x="1105" y="750"/>
      <point x="886" y="821"/>
      <point x="670" y="882" type="curve" smooth="yes"/>
      <point x="574" y="916"/>
      <point x="608" y="887"/>
      <point x="513" y="921" type="curve" smooth="yes"/>
      <point x="350" y="970"/>
      <point x="187" y="1025"/>
      <point x="187" y="1209" type="curve" smooth="yes"/>
      <point x="187" y="1464"/>
      <point x="416" y="1520"/>
      <point x="615" y="1520" type="curve" smooth="yes"/>
      <point x="738" y="1520"/>
      <point x="878" y="1468"/>
      <point x="959" y="1403" type="curve"/>
      <point x="1001" y="1465" type="line"/>
      <point x="845" y="1578"/>
      <point x="705" y="1597"/>
      <point x="555" y="1597" type="curve" smooth="yes"/>
      <point x="315" y="1597"/>
      <point x="99" y="1454"/>
      <point x="99" y="1203" type="curve" smooth="yes"/>
      <point x="99" y="934"/>
      <point x="304" y="867"/>
      <point x="476" y="824" type="curve" smooth="yes"/>
      <point x="590" y="784"/>
      <point x="551" y="823"/>
      <point x="658" y="785" type="curve" smooth="yes"/>
      <point x="834" y="733"/>
      <point x="1015" y="649"/>
      <point x="1015" y="416" type="curve" smooth="yes"/>
      <point x="1015" y="126"/>
      <point x="817" y="69"/>
      <point x="595" y="69" type="curve" smooth="yes"/>
      <point x="383" y="69"/>
      <point x="188" y="159"/>
      <point x="131" y="195" type="curve"/>
      <point x="94" y="125" type="line"/>
      <point x="186" y="65"/>
      <point x="445" y="-16"/>
    </contour>
  </outline>
</glyph>
<glyph name="T" format="1">
  <advance width="1125"/>
  <unicode hex="0054"/>
  <outline>
    <contour>
      <point x="515" y="0" type="line"/>
      <point x="609" y="0" type="line"/>
      <point x="609" y="1504" type="line"/>
      <point x="1097" y="1504" type="line"/>
      <point x="1097" y="1580" type="line"/>
      <point x="28" y="1580" type="line"/>
      <point x="28" y="1504" type="line"/>
      <point x="515" y="1504" type="line"/>
    </contour>
  </outline>
</glyph>
<glyph name="U" format="1">
  <advance width="1421"/>
  <unicode hex="0055"/>
  <outline>
    <contour>
      <point x="709" y="-48" type="curve" smooth="yes"/>
      <point x="1211" y="-48"/>
      <point x="1301" y="277"/>
      <point x="1301" y="689" type="curve" smooth="yes"/>
      <point x="1301" y="1580" type="line"/>
      <point x="1197" y="1580" type="line"/>
      <point x="1197" y="685" type="line" smooth="yes"/>
      <point x="1197" y="345"/>
      <point x="1175" y="26"/>
      <point x="714" y="26" type="curve" smooth="yes"/>
      <point x="255" y="26"/>
      <point x="218" y="342"/>
      <point x="218" y="685" type="curve" smooth="yes"/>
      <point x="218" y="1580" type="line"/>
      <point x="121" y="1580" type="line"/>
      <point x="121" y="689" type="line" smooth="yes"/>
      <point x="121" y="275"/>
      <point x="212" y="-48"/>
    </contour>
  </outline>
</glyph>
<glyph name="V" format="1">
  <advance width="1239"/>
  <unicode hex="0056"/>
  <outline>
    <contour>
      <point x="532" y="0" type="line"/>
      <point x="711" y="0" type="line"/>
      <point x="1206" y="1580" type="line"/>
      <point x="1102" y="1580" type="line"/>
      <point x="619" y="-12" type="line"/>
      <point x="147" y="1580" type="line"/>
      <point x="38" y="1580" type="line"/>
    </contour>
  </outline>
</glyph>
<glyph name="X" format="1">
  <advance width="1306"/>
  <unicode hex="0058"/>
  <outline>
    <contour>
      <point x="92" y="0" type="line"/>
      <point x="217" y="0" type="line"/>
      <point x="415" y="333"/>
      <point x="454" y="402"/>
      <point x="653" y="734" type="curve"/>
      <point x="1089" y="0" type="line"/>
      <point x="1215" y="0" type="line"/>
      <point x="710" y="802" type="line"/>
      <point x="1212" y="1580" type="line"/>
      <point x="1116" y="1580" type="line"/>
      <point x="653" y="883" type="line"/>
      <point x="191" y="1580" type="line"/>
      <point x="95" y="1580" type="line"/>
      <point x="596" y="802" type="line"/>
    </contour>
  </outline>
</glyph>
<glyph name="Y" format="1">
  <advance width="1260"/>
  <unicode hex="0059"/>
  <outline>
    <contour>
      <point x="578" y="0" type="line"/>
      <point x="683" y="0" type="line"/>
      <point x="683" y="578" type="line"/>
      <point x="1200" y="1580" type="line"/>
      <point x="1107" y="1580" type="line"/>
      <point x="631" y="664" type="line"/>
      <point x="416" y="1088"/>
      <point x="374" y="1153"/>
      <point x="166" y="1580" type="curve"/>
      <point x="61" y="1580" type="line"/>
      <point x="578" y="578" type="line"/>
    </contour>
  </outline>
</glyph>
<glyph name="Z" format="1">
  <advance width="1176"/>
  <unicode hex="005A"/>
  <outline>
    <contour>
      <point x="139" y="0" type="line"/>
      <point x="1097" y="0" type="line"/>
      <point x="1097" y="76" type="line"/>
      <point x="228" y="76" type="line"/>
      <point x="1095" y="1454" type="line"/>
      <point x="1095" y="1580" type="line"/>
      <point x="139" y="1580" type="line"/>
      <point x="139" y="1520" type="line"/>
      <point x="1009" y="1520" type="line"/>
      <point x="139" y="142" type="line"/>
    </contour>
  </outline>
</glyph>
<glyph name="bracketleft" format="1">
  <advance width="762"/>
  <unicode hex="005B"/>
  <outline>
    <contour>
      <point x="63" y="0" type="line"/>
      <point x="681" y="0" type="line"/>
      <point x="681" y="79" type="line"/>
      <point x="182" y="79" type="line"/>
      <point x="182" y="1500" type="line"/>
      <point x="681" y="1500" type="line"/>
      <point x="681" y="1580" type="line"/>
      <point x="63" y="1580" type="line"/>
    </contour>
  </outline>
</glyph>
<glyph name="bracketright" format="1">
  <advance width="762"/>
  <unicode hex="005D"/>
  <outline>
    <contour>
      <point x="55" y="0" type="line"/>
      <point x="673" y="0" type="line"/>
      <point x="673" y="1580" type="line"/>
      <point x="55" y="1580" type="line"/>
      <point x="55" y="1500" type="line"/>
      <point x="556" y="1500" type="line"/>
      <point x="556" y="79" type="line"/>
      <point x="55" y="79" type="line"/>
    </contour>
  </outline>
</glyph>
<glyph name="asciicircum" format="1">
  <advance width="688"/>
  <unicode hex="005E"/>
  <outline>
    <contour>
      <point x="28" y="482" type="line"/>
      <point x="79" y="362" type="line"/>
      <point x="344" y="735" type="line"/>
      <point x="610" y="362" type="line"/>
      <point x="660" y="482" type="line"/>
      <point x="349" y="919" type="line"/>
      <point x="338" y="919" type="line"/>
    </contour>
  </outline>
</glyph>
<glyph name="grave" format="1">
  <advance width="199"/>
  <unicode hex="0060"/>
  <outline>
    <contour>
      <point x="434" y="-192" type="line"/>
      <point x="437" y="-192" type="line"/>
      <point x="70" y="257" type="line"/>
      <point x="-10" y="180" type="line"/>
    </contour>
  </outline>
</glyph>
<glyph name="a" format="1">
  <advance width="1172"/>
  <unicode hex="0061"/>
  <outline>
    <contour>
      <point x="499" y="-17" type="curve" smooth="yes"/>
      <point x="681" y="-17"/>
      <point x="826" y="28"/>
      <point x="949" y="193" type="curve"/>
      <point x="966" y="0" type="line"/>
      <point x="1036" y="0" type="line"/>
      <point x="1036" y="692" type="line" smooth="yes"/>
      <point x="1036" y="1058"/>
      <point x="954" y="1187"/>
      <point x="574" y="1187" type="curve" smooth="yes"/>
      <point x="420" y="1187"/>
      <point x="305" y="1140"/>
      <point x="175" y="1071" type="curve"/>
      <point x="237" y="990" type="line"/>
      <point x="328" y="1059"/>
      <point x="471" y="1094"/>
      <point x="607" y="1097" type="curve" smooth="yes"/>
      <point x="907" y="1101"/>
      <point x="931" y="960"/>
      <point x="930" y="693" type="curve" smooth="yes"/>
      <point x="930" y="701"/>
      <point x="931" y="634"/>
      <point x="931" y="642" type="curve"/>
      <point x="834" y="678"/>
      <point x="650" y="711"/>
      <point x="546" y="708" type="curve" smooth="yes"/>
      <point x="260" y="697"/>
      <point x="107" y="572"/>
      <point x="107" y="333" type="curve" smooth="yes"/>
      <point x="107" y="92"/>
      <point x="265" y="-17"/>
    </contour>
    <contour>
      <point x="521" y="68" type="curve" smooth="yes"/>
      <point x="316" y="68"/>
      <point x="232" y="140"/>
      <point x="235" y="359" type="curve" smooth="yes"/>
      <point x="242" y="574"/>
      <point x="398" y="627"/>
      <point x="587" y="627" type="curve" smooth="yes"/>
      <point x="705" y="627"/>
      <point x="816" y="610"/>
      <point x="931" y="578" type="curve"/>
      <point x="931" y="255" type="line"/>
      <point x="818" y="154"/>
      <point x="676" y="68"/>
    </contour>
  </outline>
</glyph>
<glyph name="b" format="1">
  <advance width="1225"/>
  <unicode hex="0062"/>
  <outline>
    <contour>
      <point x="622" y="-17" type="curve" smooth="yes"/>
      <point x="984" y="-17"/>
      <point x="1101" y="323"/>
      <point x="1101" y="577" type="curve" smooth="yes"/>
      <point x="1101" y="842"/>
      <point x="987" y="1187"/>
      <point x="607" y="1187" type="curve" smooth="yes"/>
      <point x="491" y="1187"/>
      <point x="327" y="1096"/>
      <point x="239" y="1014" type="curve"/>
      <point x="239" y="1601" type="line"/>
      <point x="135" y="1580" type="line"/>
      <point x="135" y="0" type="line"/>
      <point x="219" y="0" type="line"/>
      <point x="221" y="184" type="line"/>
      <point x="336" y="63"/>
      <point x="486" y="-17"/>
    </contour>
    <contour>
      <point x="676" y="73" type="curve" smooth="yes"/>
      <point x="509" y="73"/>
      <point x="356" y="148"/>
      <point x="239" y="261" type="curve"/>
      <point x="239" y="927" type="line"/>
      <point x="326" y="1008"/>
      <point x="523" y="1087"/>
      <point x="659" y="1087" type="curve" smooth="yes"/>
      <point x="980" y="1087"/>
      <point x="1009" y="721"/>
      <point x="1009" y="583" type="curve" smooth="yes"/>
      <point x="1009" y="423"/>
      <point x="983" y="73"/>
    </contour>
  </outline>
</glyph>
<glyph name="c" format="1">
  <advance width="1083"/>
  <unicode hex="0063"/>
  <outline>
    <contour>
      <point x="603" y="-12" type="curve" smooth="yes"/>
      <point x="737" y="-19"/>
      <point x="864" y="20"/>
      <point x="980" y="120" type="curve"/>
      <point x="950" y="187" type="line"/>
      <point x="849" y="101"/>
      <point x="764" y="68"/>
      <point x="639" y="68" type="curve" smooth="yes"/>
      <point x="365" y="68"/>
      <point x="216" y="306"/>
      <point x="216" y="585" type="curve" smooth="yes"/>
      <point x="216" y="844"/>
      <point x="363" y="1103"/>
      <point x="636" y="1103" type="curve" smooth="yes"/>
      <point x="776" y="1103"/>
      <point x="867" y="1056"/>
      <point x="949" y="979" type="curve"/>
      <point x="996" y="1042" type="line"/>
      <point x="882" y="1146"/>
      <point x="759" y="1184"/>
      <point x="631" y="1184" type="curve" smooth="yes"/>
      <point x="303" y="1184"/>
      <point x="118" y="890"/>
      <point x="118" y="585" type="curve" smooth="yes"/>
      <point x="118" y="287"/>
      <point x="278" y="7"/>
    </contour>
  </outline>
</glyph>
<glyph name="d" format="1">
  <advance width="1209"/>
  <unicode hex="0064"/>
  <outline>
    <contour>
      <point x="591" y="-19" type="curve" smooth="yes"/>
      <point x="735" y="-23"/>
      <point x="900" y="77"/>
      <point x="992" y="186" type="curve"/>
      <point x="994" y="0" type="line"/>
      <point x="1078" y="0" type="line"/>
      <point x="1078" y="1601" type="line"/>
      <point x="974" y="1580" type="line"/>
      <point x="974" y="1018" type="line"/>
      <point x="889" y="1120"/>
      <point x="703" y="1187"/>
      <point x="579" y="1187" type="curve" smooth="yes"/>
      <point x="216" y="1187"/>
      <point x="119" y="827"/>
      <point x="119" y="563" type="curve" smooth="yes"/>
      <point x="119" y="258"/>
      <point x="260" y="-9"/>
    </contour>
    <contour>
      <point x="547" y="67" type="curve" smooth="yes"/>
      <point x="226" y="67"/>
      <point x="211" y="406"/>
      <point x="211" y="588" type="curve" smooth="yes"/>
      <point x="211" y="760"/>
      <point x="243" y="1093"/>
      <point x="558" y="1093" type="curve" smooth="yes"/>
      <point x="717" y="1093"/>
      <point x="862" y="1008"/>
      <point x="974" y="928" type="curve"/>
      <point x="974" y="264" type="line"/>
      <point x="869" y="150"/>
      <point x="683" y="67"/>
    </contour>
  </outline>
</glyph>
<glyph name="e" format="1">
  <advance width="1188"/>
  <unicode hex="0065"/>
  <outline>
    <contour>
      <point x="654" y="-12" type="curve" smooth="yes"/>
      <point x="769" y="-12"/>
      <point x="944" y="35"/>
      <point x="1041" y="124" type="curve"/>
      <point x="1006" y="187" type="line"/>
      <point x="920" y="115"/>
      <point x="770" y="69"/>
      <point x="658" y="69" type="curve" smooth="yes"/>
      <point x="338" y="69"/>
      <point x="216" y="320"/>
      <point x="216" y="589" type="curve"/>
      <point x="1066" y="589" type="line"/>
      <point x="1066" y="589"/>
      <point x="1078" y="629"/>
      <point x="1078" y="687" type="curve" smooth="yes"/>
      <point x="1078" y="951"/>
      <point x="943" y="1184"/>
      <point x="641" y="1184" type="curve" smooth="yes"/>
      <point x="301" y="1184"/>
      <point x="118" y="885"/>
      <point x="118" y="595" type="curve" smooth="yes"/>
      <point x="118" y="280"/>
      <point x="292" y="-12"/>
    </contour>
    <contour>
      <point x="228" y="671" type="line"/>
      <point x="254" y="891"/>
      <point x="371" y="1102"/>
      <point x="646" y="1102" type="curve" smooth="yes"/>
      <point x="885" y="1102"/>
      <point x="983" y="889"/>
      <point x="981" y="707" type="curve" smooth="yes"/>
      <point x="981" y="709"/>
      <point x="981" y="668"/>
      <point x="981" y="671" type="curve"/>
    </contour>
  </outline>
</glyph>
<glyph name="f" format="1">
  <advance width="722"/>
  <unicode hex="0066"/>
  <outline>
    <contour>
      <point x="236" y="0" type="line"/>
      <point x="340" y="0" type="line"/>
      <point x="340" y="1096" type="line"/>
      <point x="724" y="1096" type="line"/>
      <point x="724" y="1172" type="line"/>
      <point x="340" y="1172" type="line"/>
      <point x="340" y="1324"/>
      <point x="315" y="1577"/>
      <point x="506" y="1577" type="curve" smooth="yes"/>
      <point x="567" y="1577"/>
      <point x="645" y="1546"/>
      <point x="692" y="1499" type="curve"/>
      <point x="775" y="1532" type="line"/>
      <point x="716" y="1596"/>
      <point x="609" y="1657"/>
      <point x="526" y="1657" type="curve" smooth="yes"/>
      <point x="252" y="1657"/>
      <point x="236" y="1420"/>
      <point x="236" y="1172" type="curve"/>
      <point x="38" y="1172" type="line"/>
      <point x="38" y="1096" type="line"/>
      <point x="236" y="1096" type="line"/>
    </contour>
  </outline>
</glyph>
<glyph name="g" format="1">
  <advance width="1177"/>
  <unicode hex="0067"/>
  <outline>
    <contour>
      <point x="883" y="709"/>
      <point x="804" y="528"/>
      <point x="556" y="528" type="curve"/>
      <point x="356" y="528"/>
      <point x="247" y="663"/>
      <point x="247" y="823" type="curve" smooth="yes"/>
      <point x="247" y="978"/>
      <point x="356" y="1102"/>
      <point x="600" y="1102" type="curve" smooth="yes"/>
      <point x="811" y="1102"/>
      <point x="883" y="960"/>
      <point x="883" y="802" type="curve" smooth="yes"/>
    </contour>
    <contour>
      <point x="851" y="-339"/>
      <point x="1054" y="-276"/>
      <point x="1054" y="-54" type="curve" smooth="yes"/>
      <point x="1054" y="209"/>
      <point x="860" y="213"/>
      <point x="648" y="213" type="curve" smooth="yes"/>
      <point x="314" y="213" type="line"/>
      <point x="316" y="210"/>
      <point x="266" y="260"/>
      <point x="266" y="338" type="curve" smooth="yes"/>
      <point x="266" y="401"/>
      <point x="307" y="491"/>
      <point x="317" y="511" type="curve"/>
      <point x="327" y="497"/>
      <point x="414" y="451"/>
      <point x="554" y="451" type="curve" smooth="yes"/>
      <point x="785" y="451"/>
      <point x="990" y="589"/>
      <point x="974" y="830" type="curve" smooth="yes"/>
      <point x="968" y="916"/>
      <point x="915" y="1023"/>
      <point x="867" y="1055" type="curve"/>
      <point x="1106" y="1055" type="line"/>
      <point x="1106" y="1157" type="line"/>
      <point x="1011" y="1156"/>
      <point x="919" y="1149"/>
      <point x="835" y="1101" type="curve"/>
      <point x="762" y="1165"/>
      <point x="675" y="1184"/>
      <point x="582" y="1184" type="curve" smooth="yes"/>
      <point x="280" y="1184"/>
      <point x="144" y="1014"/>
      <point x="144" y="816" type="curve" smooth="yes"/>
      <point x="144" y="628"/>
      <point x="277" y="546"/>
      <point x="282" y="535" type="curve"/>
      <point x="184" y="447"/>
      <point x="161" y="362"/>
      <point x="174" y="282" type="curve" smooth="yes"/>
      <point x="190" y="183"/>
      <point x="259" y="166"/>
      <point x="314" y="154" type="curve"/>
      <point x="221" y="117"/>
      <point x="150" y="30"/>
      <point x="150" y="-85" type="curve" smooth="yes"/>
      <point x="150" y="-324"/>
      <point x="330" y="-339"/>
      <point x="532" y="-339" type="curve" smooth="yes"/>
    </contour>
    <contour>
      <point x="960" y="-234"/>
      <point x="772" y="-265"/>
      <point x="526" y="-265" type="curve" smooth="yes"/>
      <point x="330" y="-265"/>
      <point x="258" y="-234"/>
      <point x="258" y="-85" type="curve" smooth="yes"/>
      <point x="258" y="-9"/>
      <point x="336" y="103"/>
      <point x="415" y="132" type="curve"/>
      <point x="447" y="132"/>
      <point x="649" y="132"/>
      <point x="682" y="132" type="curve" smooth="yes"/>
      <point x="764" y="132"/>
      <point x="960" y="140"/>
      <point x="960" y="-66" type="curve" smooth="yes"/>
    </contour>
  </outline>
</glyph>
<glyph name="h" format="1">
  <advance width="1169"/>
  <unicode hex="0068"/>
  <outline>
    <contour>
      <point x="126" y="0" type="line"/>
      <point x="230" y="0" type="line"/>
      <point x="230" y="890" type="line"/>
      <point x="362" y="1030"/>
      <point x="576" y="1093"/>
      <point x="692" y="1093" type="curve" smooth="yes"/>
      <point x="942" y="1093"/>
      <point x="945" y="894"/>
      <point x="945" y="716" type="curve" smooth="yes"/>
      <point x="945" y="0" type="line"/>
      <point x="1049" y="0" type="line"/>
      <point x="1049" y="729" type="line" smooth="yes"/>
      <point x="1049" y="990"/>
      <point x="999" y="1187"/>
      <point x="655" y="1187" type="curve" smooth="yes"/>
      <point x="476" y="1187"/>
      <point x="360" y="1091"/>
      <point x="230" y="986" type="curve"/>
      <point x="230" y="1604" type="line"/>
      <point x="126" y="1580" type="line"/>
    </contour>
  </outline>
</glyph>
<glyph name="i" format="1">
  <advance width="389"/>
  <unicode hex="0069"/>
  <outline>
    <contour>
      <point x="154" y="0" type="line"/>
      <point x="245" y="0" type="line"/>
      <point x="245" y="1172" type="line"/>
      <point x="154" y="1172" type="line"/>
    </contour>
    <contour>
      <point x="205" y="1352" type="curve" smooth="yes"/>
      <point x="247" y="1352"/>
      <point x="266" y="1388"/>
      <point x="266" y="1424" type="curve" smooth="yes"/>
      <point x="266" y="1461"/>
      <point x="247" y="1497"/>
      <point x="205" y="1497" type="curve" smooth="yes"/>
      <point x="167" y="1497"/>
      <point x="137" y="1461"/>
      <point x="137" y="1424" type="curve" smooth="yes"/>
      <point x="137" y="1385"/>
      <point x="167" y="1352"/>
    </contour>
  </outline>
</glyph>
<glyph name="j" format="1">
  <advance width="448"/>
  <unicode hex="006A"/>
  <outline>
    <contour>
      <point x="39" y="-371" type="line"/>
      <point x="274" y="-312"/>
      <point x="307" y="-43"/>
      <point x="307" y="143" type="curve" smooth="yes"/>
      <point x="307" y="1172" type="line"/>
      <point x="203" y="1172" type="line"/>
      <point x="203" y="166" type="line" smooth="yes"/>
      <point x="203" y="-27"/>
      <point x="223" y="-190"/>
      <point x="26" y="-320" type="curve"/>
    </contour>
    <contour>
      <point x="254" y="1352" type="curve" smooth="yes"/>
      <point x="294" y="1352"/>
      <point x="319" y="1388"/>
      <point x="319" y="1424" type="curve" smooth="yes"/>
      <point x="319" y="1461"/>
      <point x="295" y="1497"/>
      <point x="254" y="1497" type="curve" smooth="yes"/>
      <point x="216" y="1497"/>
      <point x="183" y="1460"/>
      <point x="183" y="1424" type="curve" smooth="yes"/>
      <point x="183" y="1384"/>
      <point x="216" y="1352"/>
    </contour>
  </outline>
</glyph>
<glyph name="k" format="1">
  <advance width="982"/>
  <unicode hex="006B"/>
  <outline>
    <contour>
      <point x="123" y="0" type="line"/>
      <point x="227" y="0" type="line"/>
      <point x="227" y="496" type="line"/>
      <point x="340" y="613" type="line"/>
      <point x="893" y="0" type="line"/>
      <point x="1011" y="0" type="line"/>
      <point x="432" y="654" type="line"/>
      <point x="954" y="1172" type="line"/>
      <point x="816" y="1172" type="line"/>
      <point x="227" y="604" type="line"/>
      <point x="227" y="1601" type="line"/>
      <point x="123" y="1580" type="line"/>
    </contour>
  </outline>
</glyph>
<glyph name="l" format="1">
  <advance width="353"/>
  <unicode hex="006C"/>
  <outline>
    <contour>
      <point x="139" y="0" type="line"/>
      <point x="243" y="0" type="line"/>
      <point x="243" y="1601" type="line"/>
      <point x="139" y="1580" type="line"/>
    </contour>
  </outline>
</glyph>
<glyph name="m" format="1">
  <advance width="1901"/>
  <unicode hex="006D"/>
  <outline>
    <contour>
      <point x="129" y="0" type="line"/>
      <point x="233" y="0" type="line"/>
      <point x="233" y="903" type="line"/>
      <point x="335" y="997"/>
      <point x="491" y="1094"/>
      <point x="649" y="1094" type="curve" smooth="yes"/>
      <point x="871" y="1094"/>
      <point x="882" y="911"/>
      <point x="882" y="755" type="curve" smooth="yes"/>
      <point x="882" y="0" type="line"/>
      <point x="986" y="0" type="line"/>
      <point x="986" y="856" type="line"/>
      <point x="1093" y="970"/>
      <point x="1256" y="1094"/>
      <point x="1442" y="1094" type="curve" smooth="yes"/>
      <point x="1663" y="1094"/>
      <point x="1677" y="918"/>
      <point x="1677" y="760" type="curve" smooth="yes"/>
      <point x="1677" y="0" type="line"/>
      <point x="1780" y="0" type="line"/>
      <point x="1780" y="772" type="line" smooth="yes"/>
      <point x="1780" y="968"/>
      <point x="1681" y="1187"/>
      <point x="1427" y="1187" type="curve" smooth="yes"/>
      <point x="1240" y="1187"/>
      <point x="1054" y="1078"/>
      <point x="972" y="938" type="curve"/>
      <point x="934" y="1091"/>
      <point x="790" y="1187"/>
      <point x="639" y="1187" type="curve" smooth="yes"/>
      <point x="454" y="1187"/>
      <point x="302" y="1106"/>
      <point x="212" y="982" type="curve"/>
      <point x="218" y="1172" type="line"/>
      <point x="129" y="1172" type="line"/>
    </contour>
  </outline>
</glyph>
<glyph name="n" format="1">
  <advance width="1227"/>
  <unicode hex="006E"/>
  <outline>
    <contour>
      <point x="145" y="0" type="line"/>
      <point x="249" y="0" type="line"/>
      <point x="249" y="893" type="line"/>
      <point x="398" y="1052"/>
      <point x="607" y="1093"/>
      <point x="727" y="1093" type="curve" smooth="yes"/>
      <point x="963" y="1093"/>
      <point x="988" y="871"/>
      <point x="988" y="716" type="curve" smooth="yes"/>
      <point x="988" y="0" type="line"/>
      <point x="1092" y="0" type="line"/>
      <point x="1092" y="725" type="line" smooth="yes"/>
      <point x="1092" y="920"/>
      <point x="1052" y="1184"/>
      <point x="727" y="1184" type="curve" smooth="yes"/>
      <point x="560" y="1184"/>
      <point x="393" y="1129"/>
      <point x="240" y="951" type="curve"/>
      <point x="218" y="1172" type="line"/>
      <point x="145" y="1172" type="line"/>
    </contour>
  </outline>
</glyph>
<glyph name="o" format="1">
  <advance width="1264"/>
  <unicode hex="006F"/>
  <outline>
    <contour>
      <point x="630" y="69" type="curve" smooth="yes"/>
      <point x="319" y="69"/>
      <point x="216" y="314"/>
      <point x="216" y="581" type="curve" smooth="yes"/>
      <point x="216" y="796"/>
      <point x="296" y="1102"/>
      <point x="632" y="1102" type="curve" smooth="yes"/>
      <point x="967" y="1102"/>
      <point x="1048" y="796"/>
      <point x="1048" y="581" type="curve" smooth="yes"/>
      <point x="1048" y="364"/>
      <point x="967" y="69"/>
    </contour>
    <contour>
      <point x="630" y="-13" type="curve" smooth="yes"/>
      <point x="984" y="-13"/>
      <point x="1146" y="274"/>
      <point x="1146" y="582" type="curve" smooth="yes"/>
      <point x="1146" y="886"/>
      <point x="989" y="1184"/>
      <point x="630" y="1184" type="curve" smooth="yes"/>
      <point x="273" y="1184"/>
      <point x="118" y="884"/>
      <point x="118" y="582" type="curve" smooth="yes"/>
      <point x="118" y="276"/>
      <point x="275" y="-13"/>
    </contour>
  </outline>
</glyph>
<glyph name="p" format="1">
  <advance width="1206"/>
  <unicode hex="0070"/>
  <outline>
    <contour>
      <point x="129" y="-530" type="line"/>
      <point x="233" y="-497" type="line"/>
      <point x="233" y="198" type="line"/>
      <point x="319" y="77"/>
      <point x="466" y="-16"/>
      <point x="616" y="-16" type="curve" smooth="yes"/>
      <point x="1016" y="-16"/>
      <point x="1085" y="365"/>
      <point x="1085" y="593" type="curve" smooth="yes"/>
      <point x="1085" y="794"/>
      <point x="1012" y="1187"/>
      <point x="596" y="1187" type="curve" smooth="yes"/>
      <point x="451" y="1187"/>
      <point x="313" y="1080"/>
      <point x="229" y="951" type="curve"/>
      <point x="214" y="1172" type="line"/>
      <point x="129" y="1172" type="line"/>
    </contour>
    <contour>
      <point x="622" y="69" type="curve" smooth="yes"/>
      <point x="498" y="69"/>
      <point x="280" y="182"/>
      <point x="233" y="267" type="curve"/>
      <point x="233" y="908" type="line"/>
      <point x="314" y="996"/>
      <point x="523" y="1091"/>
      <point x="646" y="1091" type="curve" smooth="yes"/>
      <point x="949" y="1091"/>
      <point x="992" y="751"/>
      <point x="992" y="549" type="curve" smooth="yes"/>
      <point x="992" y="363"/>
      <point x="920" y="69"/>
    </contour>
  </outline>
</glyph>
<glyph name="r" format="1">
  <advance width="708"/>
  <unicode hex="0072"/>
  <outline>
    <contour>
      <point x="132" y="0" type="line"/>
      <point x="236" y="0" type="line"/>
      <point x="236" y="944" type="line"/>
      <point x="311" y="1024"/>
      <point x="532" y="1099"/>
      <point x="623" y="1099" type="curve"/>
      <point x="613" y="1189" type="line"/>
      <point x="488" y="1189"/>
      <point x="308" y="1056"/>
      <point x="215" y="975" type="curve"/>
      <point x="191" y="1172" type="line"/>
      <point x="132" y="1172" type="line"/>
    </contour>
  </outline>
</glyph>
<glyph name="s" format="1">
  <advance width="912"/>
  <unicode hex="0073"/>
  <outline>
    <contour>
      <point x="433" y="-17" type="curve" smooth="yes"/>
      <point x="647" y="-17"/>
      <point x="836" y="75"/>
      <point x="836" y="308" type="curve" smooth="yes"/>
      <point x="836" y="538"/>
      <point x="654" y="627"/>
      <point x="520" y="667" type="curve" smooth="yes"/>
      <point x="449" y="692"/>
      <point x="484" y="669"/>
      <point x="418" y="692" type="curve" smooth="yes"/>
      <point x="281" y="739"/>
      <point x="161" y="807"/>
      <point x="161" y="909" type="curve" smooth="yes"/>
      <point x="162" y="1080"/>
      <point x="350" y="1105"/>
      <point x="445" y="1105" type="curve" smooth="yes"/>
      <point x="572" y="1105"/>
      <point x="637" y="1063"/>
      <point x="719" y="985" type="curve"/>
      <point x="769" y="1066" type="line"/>
      <point x="687" y="1151"/>
      <point x="546" y="1187"/>
      <point x="426" y="1187" type="curve" smooth="yes"/>
      <point x="290" y="1187"/>
      <point x="81" y="1116"/>
      <point x="81" y="884" type="curve" smooth="yes"/>
      <point x="81" y="719"/>
      <point x="234" y="638"/>
      <point x="382" y="590" type="curve" smooth="yes"/>
      <point x="452" y="565"/>
      <point x="417" y="588"/>
      <point x="486" y="563" type="curve" smooth="yes"/>
      <point x="631" y="517"/>
      <point x="752" y="458"/>
      <point x="752" y="304" type="curve" smooth="yes"/>
      <point x="752" y="104"/>
      <point x="576" y="69"/>
      <point x="455" y="69" type="curve" smooth="yes"/>
      <point x="347" y="69"/>
      <point x="243" y="126"/>
      <point x="155" y="199" type="curve"/>
      <point x="106" y="110" type="line"/>
      <point x="171" y="43"/>
      <point x="365" y="-17"/>
    </contour>
  </outline>
</glyph>
<glyph name="t" format="1">
  <advance width="777"/>
  <unicode hex="0074"/>
  <outline>
    <contour>
      <point x="491" y="-13" type="curve" smooth="yes"/>
      <point x="549" y="-13"/>
      <point x="609" y="0"/>
      <point x="684" y="30" type="curve"/>
      <point x="662" y="110" type="line"/>
      <point x="611" y="83"/>
      <point x="551" y="63"/>
      <point x="492" y="63" type="curve" smooth="yes"/>
      <point x="378" y="63"/>
      <point x="340" y="167"/>
      <point x="340" y="247" type="curve" smooth="yes"/>
      <point x="340" y="1098" type="line"/>
      <point x="680" y="1098" type="line"/>
      <point x="680" y="1172" type="line"/>
      <point x="340" y="1172" type="line"/>
      <point x="340" y="1562" type="line"/>
      <point x="273" y="1532" type="line"/>
      <point x="236" y="1172" type="line"/>
      <point x="56" y="1172" type="line"/>
      <point x="56" y="1098" type="line"/>
      <point x="235" y="1098" type="line"/>
      <point x="235" y="232" type="line" smooth="yes"/>
      <point x="235" y="134"/>
      <point x="303" y="-13"/>
    </contour>
  </outline>
</glyph>
<glyph name="u" format="1">
  <advance width="1148"/>
  <unicode hex="0075"/>
  <outline>
    <contour>
      <point x="539" y="-16" type="curve" smooth="yes"/>
      <point x="737" y="-13"/>
      <point x="867" y="109"/>
      <point x="940" y="181" type="curve"/>
      <point x="945" y="0" type="line"/>
      <point x="1019" y="0" type="line"/>
      <point x="1019" y="1172" type="line"/>
      <point x="915" y="1172" type="line"/>
      <point x="917" y="258" type="line"/>
      <point x="788" y="138"/>
      <point x="656" y="71"/>
      <point x="495" y="71" type="curve" smooth="yes"/>
      <point x="246" y="71"/>
      <point x="224" y="290"/>
      <point x="224" y="465" type="curve" smooth="yes"/>
      <point x="224" y="1172" type="line"/>
      <point x="120" y="1172" type="line"/>
      <point x="120" y="438" type="line" smooth="yes"/>
      <point x="120" y="199"/>
      <point x="204" y="-16"/>
    </contour>
  </outline>
</glyph>
<glyph name="v" format="1">
  <advance width="1009"/>
  <unicode hex="0076"/>
  <outline>
    <contour>
      <point x="486" y="0" type="line"/>
      <point x="537" y="0" type="line"/>
      <point x="971" y="1172" type="line"/>
      <point x="887" y="1172" type="line"/>
      <point x="517" y="89" type="line"/>
      <point x="122" y="1172" type="line"/>
      <point x="38" y="1172" type="line"/>
    </contour>
  </outline>
</glyph>
<glyph name="w" format="1">
  <advance width="1626"/>
  <unicode hex="0077"/>
  <outline>
    <contour>
      <point x="376" y="0" type="line"/>
      <point x="490" y="0" type="line"/>
      <point x="816" y="1164" type="line"/>
      <point x="1144" y="0" type="line"/>
      <point x="1257" y="0" type="line"/>
      <point x="1584" y="1172" type="line"/>
      <point x="1480" y="1172" type="line"/>
      <point x="1216" y="43" type="line"/>
      <point x="886" y="1172" type="line"/>
      <point x="741" y="1172" type="line"/>
      <point x="429" y="42" type="line"/>
      <point x="135" y="1172" type="line"/>
      <point x="42" y="1172" type="line"/>
    </contour>
  </outline>
</glyph>
<glyph name="x" format="1">
  <advance width="938"/>
  <unicode hex="0078"/>
  <outline>
    <contour>
      <point x="31" y="0" type="line"/>
      <point x="120" y="0" type="line"/>
      <point x="476" y="532" type="line"/>
      <point x="815" y="0" type="line"/>
      <point x="904" y="0" type="line"/>
      <point x="523" y="584" type="line"/>
      <point x="911" y="1172" type="line"/>
      <point x="824" y="1172" type="line"/>
      <point x="465" y="647" type="line"/>
      <point x="111" y="1172" type="line"/>
      <point x="26" y="1172" type="line"/>
      <point x="418" y="584" type="line"/>
    </contour>
  </outline>
</glyph>
<glyph name="y" format="1">
  <advance width="1008"/>
  <unicode hex="0079"/>
  <outline>
    <contour>
      <point x="170" y="-423" type="line"/>
      <point x="438" y="-425"/>
      <point x="467" y="-223"/>
      <point x="539" y="-40" type="curve"/>
      <point x="998" y="1172" type="line"/>
      <point x="888" y="1172" type="line"/>
      <point x="529" y="137" type="line"/>
      <point x="131" y="1172" type="line"/>
      <point x="44" y="1172" type="line"/>
      <point x="478" y="12" type="line"/>
      <point x="409" y="-210"/>
      <point x="362" y="-331"/>
      <point x="151" y="-340" type="curve"/>
    </contour>
  </outline>
</glyph>
<glyph name="z" format="1">
  <advance width="941"/>
  <unicode hex="007A"/>
  <outline>
    <contour>
      <point x="111" y="0" type="line"/>
      <point x="844" y="0" type="line"/>
      <point x="844" y="81" type="line"/>
      <point x="176" y="81" type="line"/>
      <point x="850" y="1042" type="line"/>
      <point x="850" y="1172" type="line"/>
      <point x="151" y="1172" type="line"/>
      <point x="151" y="1099" type="line"/>
      <point x="799" y="1099" type="line"/>
      <point x="111" y="130" type="line"/>
    </contour>
  </outline>
</glyph>
<glyph name="bar" format="1">
  <advance width="234"/>
  <unicode hex="007C"/>
  <outline>
    <contour>
      <point x="63" y="-92" type="line"/>
      <point x="171" y="-92" type="line"/>
      <point x="171" y="1712" type="line"/>
      <point x="63" y="1712" type="line"/>
    </contour>
  </outline>
</glyph>
<glyph name="asciitilde" format="1">
  <advance width="846"/>
  <unicode hex="007E"/>
  <outline>
    <contour>
      <point x="592" y="433" type="curve" smooth="yes"/>
      <point x="726" y="433"/>
      <point x="763" y="564"/>
      <point x="763" y="643" type="curve"/>
      <point x="637" y="643" type="line"/>
      <point x="637" y="621"/>
      <point x="635" y="523"/>
      <point x="576" y="523" type="curve" smooth="yes"/>
      <point x="468" y="523"/>
      <point x="389" y="645"/>
      <point x="255" y="643" type="curve"/>
      <point x="96" y="643"/>
      <point x="69" y="517"/>
      <point x="69" y="425" type="curve"/>
      <point x="198" y="425" type="line"/>
      <point x="198" y="447"/>
      <point x="190" y="541"/>
      <point x="259" y="541" type="curve" smooth="yes"/>
      <point x="324" y="541"/>
      <point x="451" y="433"/>
    </contour>
  </outline>
</glyph>
<glyph name="exclamdown" format="1">
  <advance width="205"/>
  <unicode hex="00A1"/>
  <outline>
    <contour>
      <point x="92" y="1" type="line"/>
      <point x="129" y="1" type="line"/>
      <point x="187" y="1242" type="line"/>
      <point x="33" y="1242" type="line"/>
    </contour>
    <contour>
      <point x="-106" y="1522" type="curve" smooth="yes"/>
      <point x="-166" y="1522"/>
      <point x="113" y="1476"/>
      <point x="113" y="1418" type="curve" smooth="yes"/>
      <point x="113" y="1360"/>
      <point x="156" y="1624"/>
      <point x="215" y="1624" type="curve" smooth="yes"/>
      <point x="273" y="1624"/>
      <point x="-6" y="1670"/>
      <point x="-6" y="1728" type="curve" smooth="yes"/>
      <point x="-6" y="1787"/>
      <point x="-47" y="1522"/>
    </contour>
  </outline>
</glyph>
<glyph name="sterling" format="1">
  <advance width="905"/>
  <unicode hex="00A3"/>
  <outline>
    <contour>
      <point x="76" y="0" type="line"/>
      <point x="833" y="0" type="line"/>
      <point x="833" y="60" type="line"/>
      <point x="204" y="60" type="line"/>
      <point x="334" y="239"/>
      <point x="308" y="527"/>
      <point x="308" y="620" type="curve"/>
      <point x="758" y="620" type="line"/>
      <point x="758" y="698" type="line"/>
      <point x="318" y="698" type="line"/>
      <point x="241" y="777"/>
      <point x="183" y="875"/>
      <point x="183" y="986" type="curve" smooth="yes"/>
      <point x="183" y="1207"/>
      <point x="353" y="1244"/>
      <point x="497" y="1244" type="curve" smooth="yes"/>
      <point x="604" y="1244"/>
      <point x="720" y="1212"/>
      <point x="863" y="1151" type="curve"/>
      <point x="868" y="1235" type="line"/>
      <point x="709" y="1333"/>
      <point x="496" y="1322"/>
      <point x="429" y="1322" type="curve" smooth="yes"/>
      <point x="276" y="1322"/>
      <point x="76" y="1167"/>
      <point x="76" y="956" type="curve" smooth="yes"/>
      <point x="76" y="908"/>
      <point x="94" y="780"/>
      <point x="192" y="701" type="curve" smooth="yes"/>
      <point x="-17" y="701" type="line"/>
      <point x="-17" y="620" type="line"/>
      <point x="218" y="619" type="line"/>
      <point x="218" y="477"/>
      <point x="228" y="223"/>
      <point x="76" y="54" type="curve"/>
    </contour>
  </outline>
</glyph>
<glyph name="currency" format="1">
  <advance width="1064"/>
  <unicode hex="00A4"/>
  <outline>
    <contour>
      <point x="112" y="442" type="line"/>
      <point x="297" y="627" type="line"/>
      <point x="360" y="587"/>
      <point x="435" y="567"/>
      <point x="509" y="567" type="curve" smooth="yes"/>
      <point x="593" y="567"/>
      <point x="676" y="593"/>
      <point x="743" y="641" type="curve"/>
      <point x="942" y="442" type="line"/>
      <point x="1063" y="564" type="line"/>
      <point x="866" y="762" type="line"/>
      <point x="913" y="831"/>
      <point x="940" y="915"/>
      <point x="940" y="999" type="curve" smooth="yes"/>
      <point x="940" y="1073"/>
      <point x="921" y="1147"/>
      <point x="881" y="1210" type="curve"/>
      <point x="1063" y="1393" type="line"/>
      <point x="942" y="1514" type="line"/>
      <point x="760" y="1333" type="line"/>
      <point x="695" y="1375"/>
      <point x="617" y="1400"/>
      <point x="540" y="1400" type="curve" smooth="yes"/>
      <point x="455" y="1400"/>
      <point x="371" y="1372"/>
      <point x="302" y="1325" type="curve"/>
      <point x="112" y="1514" type="line"/>
      <point x="-9" y="1393" type="line"/>
      <point x="181" y="1203" type="line"/>
      <point x="135" y="1135"/>
      <point x="107" y="1051"/>
      <point x="107" y="967" type="curve" smooth="yes"/>
      <point x="107" y="890"/>
      <point x="132" y="812"/>
      <point x="174" y="747" type="curve"/>
      <point x="-9" y="564" type="line"/>
    </contour>
    <contour>
      <point x="511" y="690" type="curve" smooth="yes"/>
      <point x="379" y="690"/>
      <point x="227" y="822"/>
      <point x="227" y="976" type="curve" smooth="yes"/>
      <point x="227" y="1141"/>
      <point x="390" y="1275"/>
      <point x="533" y="1275" type="curve" smooth="yes"/>
      <point x="668" y="1275"/>
      <point x="822" y="1147"/>
      <point x="822" y="992" type="curve" smooth="yes"/>
      <point x="822" y="832"/>
      <point x="654" y="690"/>
    </contour>
  </outline>
</glyph>
<glyph name="yen" format="1">
  <advance width="944"/>
  <unicode hex="00A5"/>
  <outline>
    <contour>
      <point x="427" y="0" type="line"/>
      <point x="532" y="0" type="line"/>
      <point x="532" y="382" type="line"/>
      <point x="813" y="382" type="line"/>
      <point x="813" y="470" type="line"/>
      <point x="531" y="470" type="line"/>
      <point x="498" y="548" type="line"/>
      <point x="813" y="548" type="line"/>
      <point x="813" y="644" type="line"/>
      <point x="517" y="644" type="line"/>
      <point x="1048" y="1580" type="line"/>
      <point x="956" y="1580" type="line"/>
      <point x="472" y="776" type="line"/>
      <point x="-13" y="1580" type="line"/>
      <point x="-108" y="1580" type="line"/>
      <point x="428" y="644" type="line"/>
      <point x="136" y="644" type="line"/>
      <point x="136" y="548" type="line"/>
      <point x="460" y="548" type="line"/>
      <point x="428" y="470" type="line"/>
      <point x="136" y="470" type="line"/>
      <point x="136" y="382" type="line"/>
      <point x="427" y="382" type="line"/>
    </contour>
  </outline>
</glyph>
<glyph name="brokenbar" format="1">
  <advance width="257"/>
  <unicode hex="00A6"/>
  <outline>
    <contour>
      <point x="67" y="79" type="line"/>
      <point x="190" y="79" type="line"/>
      <point x="190" y="739" type="line"/>
      <point x="67" y="739" type="line"/>
    </contour>
    <contour>
      <point x="67" y="872" type="line"/>
      <point x="190" y="872" type="line"/>
      <point x="190" y="1532" type="line"/>
      <point x="67" y="1532" type="line"/>
    </contour>
  </outline>
</glyph>
<glyph name="copyright" format="1">
  <advance width="1676"/>
  <unicode hex="00A9"/>
  <outline>
    <contour>
      <point x="869" y="371" type="curve" smooth="yes"/>
      <point x="974" y="371"/>
      <point x="1065" y="404"/>
      <point x="1147" y="446" type="curve"/>
      <point x="1147" y="528" type="line"/>
      <point x="1047" y="487"/>
      <point x="952" y="464"/>
      <point x="847" y="464" type="curve" smooth="yes"/>
      <point x="519" y="464"/>
      <point x="449" y="593"/>
      <point x="449" y="856" type="curve" smooth="yes"/>
      <point x="449" y="1130"/>
      <point x="523" y="1250"/>
      <point x="847" y="1250" type="curve" smooth="yes"/>
      <point x="959" y="1250"/>
      <point x="1061" y="1222"/>
      <point x="1151" y="1184" type="curve"/>
      <point x="1151" y="1265" type="line"/>
      <point x="1050" y="1313"/>
      <point x="970" y="1342"/>
      <point x="878" y="1341" type="curve"/>
      <point x="522" y="1341"/>
      <point x="327" y="1207"/>
      <point x="327" y="851" type="curve" smooth="yes"/>
      <point x="327" y="466"/>
      <point x="561" y="371"/>
    </contour>
    <contour>
      <point x="826" y="36" type="curve" smooth="yes"/>
      <point x="1220" y="36"/>
      <point x="1665" y="277"/>
      <point x="1665" y="877" type="curve" smooth="yes"/>
      <point x="1665" y="1368"/>
      <point x="1156" y="1678"/>
      <point x="830" y="1678" type="curve" smooth="yes"/>
      <point x="350" y="1678"/>
      <point x="-19" y="1292"/>
      <point x="-19" y="854" type="curve" smooth="yes"/>
      <point x="-19" y="398"/>
      <point x="352" y="36"/>
    </contour>
    <contour>
      <point x="822" y="101" type="curve" smooth="yes"/>
      <point x="398" y="101"/>
      <point x="72" y="413"/>
      <point x="72" y="854" type="curve" smooth="yes"/>
      <point x="72" y="1241"/>
      <point x="386" y="1612"/>
      <point x="832" y="1612" type="curve" smooth="yes"/>
      <point x="1178" y="1612"/>
      <point x="1575" y="1319"/>
      <point x="1575" y="850" type="curve" smooth="yes"/>
      <point x="1575" y="409"/>
      <point x="1253" y="101"/>
    </contour>
  </outline>
</glyph>
<glyph name="logicalnot" format="1">
  <advance width="1625"/>
  <unicode hex="00AC"/>
  <outline>
    <contour>
      <point x="1346" y="399" type="line"/>
      <point x="1514" y="399" type="line"/>
      <point x="1514" y="1350" type="line"/>
      <point x="-32" y="1350" type="line"/>
      <point x="-32" y="1258" type="line"/>
      <point x="1346" y="1258" type="line"/>
    </contour>
  </outline>
</glyph>
<glyph name="registered" format="1">
  <advance width="1162"/>
  <unicode hex="00AE"/>
  <outline>
    <contour>
      <point x="721" y="866" type="line"/>
      <point x="770" y="892"/>
      <point x="754" y="890"/>
      <point x="806" y="910" type="curve"/>
      <point x="629" y="1155" type="line"/>
      <point x="722" y="1175"/>
      <point x="796" y="1202"/>
      <point x="796" y="1323" type="curve" smooth="yes"/>
      <point x="796" y="1451"/>
      <point x="567" y="1450"/>
      <point x="526" y="1450" type="curve" smooth="yes"/>
      <point x="414" y="1450" type="line"/>
      <point x="414" y="886" type="line"/>
      <point x="507" y="886" type="line"/>
      <point x="507" y="1141" type="line"/>
      <point x="552" y="1141" type="line"/>
    </contour>
    <contour>
      <point x="578" y="728" type="curve" smooth="yes"/>
      <point x="332" y="728"/>
      <point x="123" y="906"/>
      <point x="123" y="1168" type="curve" smooth="yes"/>
      <point x="123" y="1428"/>
      <point x="331" y="1610"/>
      <point x="578" y="1610" type="curve" smooth="yes"/>
      <point x="823" y="1610"/>
      <point x="1036" y="1430"/>
      <point x="1036" y="1169" type="curve" smooth="yes"/>
      <point x="1036" y="908"/>
      <point x="821" y="728"/>
    </contour>
    <contour>
      <point x="579" y="649" type="curve" smooth="yes"/>
      <point x="860" y="649"/>
      <point x="1123" y="856"/>
      <point x="1123" y="1171" type="curve" smooth="yes"/>
      <point x="1123" y="1475"/>
      <point x="869" y="1693"/>
      <point x="579" y="1693" type="curve" smooth="yes"/>
      <point x="304" y="1693"/>
      <point x="35" y="1485"/>
      <point x="35" y="1171" type="curve" smooth="yes"/>
      <point x="35" y="864"/>
      <point x="288" y="649"/>
    </contour>
    <contour>
      <point x="508" y="1207" type="line"/>
      <point x="508" y="1383" type="line"/>
      <point x="501" y="1383"/>
      <point x="707" y="1405"/>
      <point x="707" y="1318" type="curve" smooth="yes"/>
      <point x="707" y="1216"/>
      <point x="623" y="1207"/>
      <point x="556" y="1207" type="curve" smooth="yes"/>
    </contour>
  </outline>
</glyph>
<glyph name="macron" format="1">
  <advance width="931"/>
  <unicode hex="00AF"/>
  <outline>
    <contour>
      <point x="318" y="85" type="line"/>
      <point x="1000" y="85" type="line"/>
      <point x="1000" y="197" type="line"/>
      <point x="318" y="197" type="line"/>
    </contour>
  </outline>
</glyph>
<glyph name="uni00B2" format="1">
  <advance width="564"/>
  <unicode hex="00B2"/>
  <outline>
    <contour>
      <point x="-20" y="693" type="line"/>
      <point x="591" y="693" type="line"/>
      <point x="591" y="818" type="line"/>
      <point x="145" y="818" type="line"/>
      <point x="189" y="855"/>
      <point x="161" y="833"/>
      <point x="215" y="876" type="curve" smooth="yes"/>
      <point x="359" y="992"/>
      <point x="621" y="1178"/>
      <point x="621" y="1393" type="curve" smooth="yes"/>
      <point x="621" y="1576"/>
      <point x="469" y="1672"/>
      <point x="294" y="1672" type="curve" smooth="yes"/>
      <point x="213" y="1672"/>
      <point x="148" y="1697"/>
      <point x="18" y="1650" type="curve"/>
      <point x="-21" y="1529" type="line"/>
      <point x="83" y="1550"/>
      <point x="173" y="1564"/>
      <point x="276" y="1564" type="curve" smooth="yes"/>
      <point x="367" y="1564"/>
      <point x="500" y="1531"/>
      <point x="500" y="1409" type="curve" smooth="yes"/>
      <point x="500" y="1298"/>
      <point x="367" y="1142"/>
      <point x="198" y="990" type="curve" smooth="yes"/>
      <point x="51" y="861"/>
      <point x="45" y="868"/>
      <point x="-20" y="810" type="curve"/>
    </contour>
  </outline>
</glyph>
<glyph name="acute" format="1">
  <advance width="73"/>
  <unicode hex="00B4"/>
  <outline>
    <contour>
      <point x="-141" y="-192" type="line"/>
      <point x="303" y="180" type="line"/>
      <point x="223" y="257" type="line"/>
      <point x="-144" y="-192" type="line"/>
    </contour>
  </outline>
</glyph>
<glyph name="paragraph" format="1">
  <advance width="937"/>
  <unicode hex="00B6"/>
  <outline>
    <contour>
      <point x="358" y="0" type="line"/>
      <point x="511" y="0" type="line"/>
      <point x="511" y="1428" type="line"/>
      <point x="646" y="1428" type="line"/>
      <point x="646" y="0" type="line"/>
      <point x="795" y="0" type="line"/>
      <point x="795" y="1579" type="line"/>
      <point x="404" y="1579" type="line" smooth="yes"/>
      <point x="191" y="1579"/>
      <point x="-93" y="1566"/>
      <point x="-93" y="1301" type="curve" smooth="yes"/>
      <point x="-93" y="1058"/>
      <point x="163" y="1009"/>
      <point x="358" y="1009" type="curve"/>
    </contour>
  </outline>
</glyph>
<glyph name="cedilla" format="1">
  <advance width="418"/>
  <unicode hex="00B8"/>
  <outline>
    <contour>
      <point x="229" y="-531" type="curve" smooth="yes"/>
      <point x="370" y="-531"/>
      <point x="461" y="-471"/>
      <point x="461" y="-314" type="curve"/>
      <point x="463" y="-148"/>
      <point x="436" y="-70"/>
      <point x="233" y="-70" type="curve"/>
      <point x="227" y="117" type="line"/>
      <point x="106" y="117" type="line"/>
      <point x="111" y="-158" type="line"/>
      <point x="180" y="-158"/>
      <point x="360" y="-133"/>
      <point x="360" y="-289" type="curve" smooth="yes"/>
      <point x="360" y="-402"/>
      <point x="330" y="-436"/>
      <point x="221" y="-436" type="curve" smooth="yes"/>
      <point x="204" y="-436"/>
      <point x="107" y="-409"/>
      <point x="61" y="-396" type="curve"/>
      <point x="61" y="-502" type="line"/>
      <point x="118" y="-514"/>
      <point x="174" y="-531"/>
    </contour>
  </outline>
</glyph>
<glyph name="onequarter" format="1">
  <advance width="1156"/>
  <unicode hex="00BC"/>
  <outline>
    <contour>
      <point x="1002" y="-317" type="line"/>
      <point x="1094" y="-282" type="line"/>
      <point x="1094" y="1" type="line"/>
      <point x="1252" y="1" type="line"/>
      <point x="1252" y="60" type="line"/>
      <point x="1094" y="60" type="line"/>
      <point x="1094" y="886" type="line"/>
      <point x="1008" y="905" type="line"/>
      <point x="420" y="83" type="line"/>
      <point x="436" y="1" type="line"/>
      <point x="1002" y="1" type="line"/>
    </contour>
    <contour>
      <point x="104" y="652" type="line"/>
      <point x="209" y="652" type="line"/>
      <point x="209" y="1594" type="line"/>
      <point x="104" y="1613" type="line"/>
      <point x="-108" y="1527" type="line"/>
      <point x="-90" y="1486" type="line"/>
      <point x="104" y="1567" type="line"/>
    </contour>
    <contour>
      <point x="-142" y="-132" type="line"/>
      <point x="1075" y="1172" type="line"/>
      <point x="1009" y="1271" type="line"/>
      <point x="-209" y="-31" type="line"/>
    </contour>
    <contour>
      <point x="501" y="60" type="line"/>
      <point x="703" y="344"/>
      <point x="807" y="471"/>
      <point x="1002" y="760" type="curve"/>
      <point x="1002" y="60" type="line"/>
    </contour>
  </outline>
</glyph>
<glyph name="onehalf" format="1">
  <advance width="1396"/>
  <unicode hex="00BD"/>
  <outline>
    <contour>
      <point x="787" y="-316" type="line"/>
      <point x="1399" y="-316" type="line"/>
      <point x="1399" y="-197" type="line"/>
      <point x="951" y="-197" type="line"/>
      <point x="1063" y="-69"/>
      <point x="1428" y="125"/>
      <point x="1429" y="385" type="curve"/>
      <point x="1429" y="571"/>
      <point x="1271" y="663"/>
      <point x="1101" y="663" type="curve" smooth="yes"/>
      <point x="1016" y="663"/>
      <point x="921" y="676"/>
      <point x="825" y="641" type="curve"/>
      <point x="786" y="521" type="line"/>
      <point x="892" y="543"/>
      <point x="981" y="556"/>
      <point x="1083" y="556" type="curve" smooth="yes"/>
      <point x="1175" y="556"/>
      <point x="1307" y="522"/>
      <point x="1307" y="401" type="curve" smooth="yes"/>
      <point x="1307" y="222"/>
      <point x="882" y="-111"/>
      <point x="787" y="-198" type="curve"/>
    </contour>
    <contour>
      <point x="104" y="652" type="line"/>
      <point x="209" y="652" type="line"/>
      <point x="209" y="1594" type="line"/>
      <point x="104" y="1613" type="line"/>
      <point x="-108" y="1527" type="line"/>
      <point x="-90" y="1486" type="line"/>
      <point x="104" y="1567" type="line"/>
    </contour>
    <contour>
      <point x="-142" y="-132" type="line"/>
      <point x="1075" y="1172" type="line"/>
      <point x="1009" y="1271" type="line"/>
      <point x="-209" y="-31" type="line"/>
    </contour>
  </outline>
</glyph>
<glyph name="threequarters" format="1">
  <advance width="1561"/>
  <unicode hex="00BE"/>
  <outline>
    <contour>
      <point x="275" y="610" type="curve"/>
      <point x="422" y="610"/>
      <point x="650" y="692"/>
      <point x="650" y="885" type="curve" smooth="yes"/>
      <point x="650" y="1089"/>
      <point x="515" y="1191"/>
      <point x="328" y="1225" type="curve"/>
      <point x="480" y="1213"/>
      <point x="618" y="1345"/>
      <point x="618" y="1494" type="curve"/>
      <point x="620" y="1690"/>
      <point x="406" y="1766"/>
      <point x="260" y="1766" type="curve" smooth="yes"/>
      <point x="196" y="1766"/>
      <point x="81" y="1756"/>
      <point x="-19" y="1709" type="curve"/>
      <point x="4" y="1612" type="line"/>
      <point x="86" y="1655"/>
      <point x="158" y="1669"/>
      <point x="241" y="1669" type="curve" smooth="yes"/>
      <point x="363" y="1669"/>
      <point x="515" y="1639"/>
      <point x="515" y="1474" type="curve"/>
      <point x="516" y="1328"/>
      <point x="362" y="1272"/>
      <point x="259" y="1272" type="curve"/>
      <point x="259" y="1170" type="line"/>
      <point x="395" y="1147"/>
      <point x="534" y="1094"/>
      <point x="534" y="915" type="curve" smooth="yes"/>
      <point x="534" y="778"/>
      <point x="392" y="703"/>
      <point x="284" y="703" type="curve" smooth="yes"/>
      <point x="191" y="703"/>
      <point x="105" y="721"/>
      <point x="-26" y="788" type="curve"/>
      <point x="-69" y="701" type="line"/>
      <point x="43" y="639"/>
      <point x="175" y="611"/>
    </contour>
    <contour>
      <point x="1390" y="-317" type="line"/>
      <point x="1493" y="-282" type="line"/>
      <point x="1493" y="1" type="line"/>
      <point x="1650" y="1" type="line"/>
      <point x="1650" y="60" type="line"/>
      <point x="1493" y="60" type="line"/>
      <point x="1493" y="886" type="line"/>
      <point x="1407" y="905" type="line"/>
      <point x="819" y="83" type="line"/>
      <point x="835" y="1" type="line"/>
      <point x="1390" y="1" type="line"/>
    </contour>
    <contour>
      <point x="259" y="-122" type="line"/>
      <point x="1474" y="1172" type="line"/>
      <point x="1394" y="1271" type="line"/>
      <point x="190" y="-31" type="line"/>
    </contour>
    <contour>
      <point x="916" y="60" type="line"/>
      <point x="1121" y="338"/>
      <point x="1212" y="431"/>
      <point x="1390" y="728" type="curve"/>
      <point x="1390" y="60" type="line"/>
    </contour>
  </outline>
</glyph>
<glyph name="questiondown" format="1">
  <advance width="703"/>
  <unicode hex="00BF"/>
  <outline>
    <contour>
      <point x="412" y="-119" type="curve" smooth="yes"/>
      <point x="510" y="-119"/>
      <point x="696" y="-75"/>
      <point x="796" y="-8" type="curve"/>
      <point x="748" y="76" type="line" smooth="yes"/>
      <point x="612" y="-9"/>
      <point x="526" y="-18"/>
      <point x="425" y="-18" type="curve" smooth="yes"/>
      <point x="243" y="-18"/>
      <point x="82" y="14"/>
      <point x="82" y="241" type="curve" smooth="yes"/>
      <point x="82" y="524"/>
      <point x="435" y="660"/>
      <point x="638" y="724" type="curve"/>
      <point x="638" y="1250" type="line"/>
      <point x="533" y="1250" type="line"/>
      <point x="533" y="798" type="line"/>
      <point x="384" y="728"/>
      <point x="-31" y="681"/>
      <point x="-31" y="230" type="curve" smooth="yes"/>
      <point x="-31" y="-52"/>
      <point x="206" y="-119"/>
    </contour>
    <contour>
      <point x="602" y="1384" type="curve" smooth="yes"/>
      <point x="626" y="1384"/>
      <point x="667" y="1403"/>
      <point x="667" y="1433" type="curve" smooth="yes"/>
      <point x="667" y="1464"/>
      <point x="642" y="1497"/>
      <point x="608" y="1497" type="curve" smooth="yes"/>
      <point x="579" y="1497"/>
      <point x="548" y="1470"/>
      <point x="548" y="1442" type="curve" smooth="yes"/>
      <point x="548" y="1417"/>
      <point x="575" y="1384"/>
    </contour>
  </outline>
</glyph>
<glyph name="germandbls" format="1">
  <advance width="1163"/>
  <unicode hex="00DF"/>
  <outline>
    <contour>
      <point x="401" y="-93" type="line"/>
      <point x="698" y="-93"/>
      <point x="1122" y="-43"/>
      <point x="1122" y="416" type="curve"/>
      <point x="1122" y="677"/>
      <point x="972" y="875"/>
      <point x="729" y="857" type="curve"/>
      <point x="867" y="872"/>
      <point x="928" y="1025"/>
      <point x="928" y="1186" type="curve" smooth="yes"/>
      <point x="928" y="1571"/>
      <point x="640" y="1581"/>
      <point x="481" y="1579" type="curve"/>
      <point x="165" y="1579"/>
      <point x="94" y="1387"/>
      <point x="94" y="1081" type="curve" smooth="yes"/>
      <point x="96" y="-9" type="line"/>
      <point x="195" y="25" type="line"/>
      <point x="195" y="1038" type="line" smooth="yes"/>
      <point x="195" y="1241"/>
      <point x="167" y="1491"/>
      <point x="481" y="1491" type="curve" smooth="yes"/>
      <point x="623" y="1491"/>
      <point x="837" y="1477"/>
      <point x="837" y="1235" type="curve" smooth="yes"/>
      <point x="837" y="912"/>
      <point x="608" y="893"/>
      <point x="375" y="901" type="curve" smooth="yes"/>
      <point x="353" y="902"/>
      <point x="360" y="903"/>
      <point x="337" y="904" type="curve"/>
      <point x="336" y="982"/>
      <point x="337" y="820"/>
      <point x="337" y="820" type="curve"/>
      <point x="537" y="820"/>
      <point x="1039" y="854"/>
      <point x="1039" y="468" type="curve" smooth="yes"/>
      <point x="1039" y="-17"/>
      <point x="672" y="-20"/>
      <point x="402" y="-4" type="curve"/>
    </contour>
  </outline>
</glyph>
<glyph name="ae" format="1">
  <advance width="1782"/>
  <unicode hex="00E6"/>
  <outline>
    <contour>
      <point x="408" y="-26" type="curve" smooth="yes"/>
      <point x="588" y="-26"/>
      <point x="757" y="85"/>
      <point x="866" y="211" type="curve"/>
      <point x="966" y="43"/>
      <point x="1152" y="-27"/>
      <point x="1324" y="-27" type="curve" smooth="yes"/>
      <point x="1422" y="-27"/>
      <point x="1608" y="38"/>
      <point x="1684" y="109" type="curve"/>
      <point x="1624" y="206" type="line"/>
      <point x="1537" y="125"/>
      <point x="1425" y="76"/>
      <point x="1308" y="76" type="curve" smooth="yes"/>
      <point x="964" y="76"/>
      <point x="914" y="313"/>
      <point x="918" y="602" type="curve"/>
      <point x="1724" y="602" type="line"/>
      <point x="1731" y="657"/>
      <point x="1736" y="626"/>
      <point x="1736" y="681" type="curve" smooth="yes"/>
      <point x="1736" y="949"/>
      <point x="1619" y="1192"/>
      <point x="1307" y="1192" type="curve" smooth="yes"/>
      <point x="1137" y="1192"/>
      <point x="958" y="1111"/>
      <point x="882" y="934" type="curve"/>
      <point x="830" y="1163"/>
      <point x="654" y="1192"/>
      <point x="478" y="1192" type="curve" smooth="yes"/>
      <point x="379" y="1192"/>
      <point x="166" y="1133"/>
      <point x="80" y="1048" type="curve"/>
      <point x="157" y="978" type="line"/>
      <point x="234" y="1060"/>
      <point x="410" y="1107"/>
      <point x="500" y="1106" type="curve"/>
      <point x="794" y="1106"/>
      <point x="803" y="964"/>
      <point x="802" y="696" type="curve" smooth="yes"/>
      <point x="802" y="637" type="line"/>
      <point x="702" y="684"/>
      <point x="517" y="707"/>
      <point x="417" y="707" type="curve" smooth="yes"/>
      <point x="203" y="707"/>
      <point x="20" y="570"/>
      <point x="20" y="327" type="curve" smooth="yes"/>
      <point x="20" y="83"/>
      <point x="178" y="-26"/>
    </contour>
    <contour>
      <point x="435" y="66" type="curve" smooth="yes"/>
      <point x="228" y="66"/>
      <point x="137" y="131"/>
      <point x="137" y="340" type="curve" smooth="yes"/>
      <point x="137" y="584"/>
      <point x="328" y="613"/>
      <point x="500" y="613" type="curve" smooth="yes"/>
      <point x="604" y="613"/>
      <point x="704" y="602"/>
      <point x="802" y="585" type="curve"/>
      <point x="802" y="250" type="line"/>
      <point x="707" y="161"/>
      <point x="577" y="66"/>
    </contour>
    <contour>
      <point x="918" y="685" type="line"/>
      <point x="918" y="690"/>
      <point x="918" y="681"/>
      <point x="918" y="685" type="curve"/>
      <point x="918" y="938"/>
      <point x="1039" y="1114"/>
      <point x="1312" y="1114" type="curve" smooth="yes"/>
      <point x="1555" y="1114"/>
      <point x="1632" y="930"/>
      <point x="1630" y="730" type="curve" smooth="yes"/>
      <point x="1630" y="685" type="line"/>
    </contour>
  </outline>
</glyph>
<glyph name="dotlessi" format="1">
  <advance width="260"/>
  <unicode hex="0131"/>
  <outline>
    <contour>
      <point x="86" y="0" type="line"/>
      <point x="178" y="0" type="line"/>
      <point x="178" y="1174" type="line"/>
      <point x="86" y="1174" type="line"/>
    </contour>
  </outline>
</glyph>
<glyph name="kgreenlandic" format="1">
  <advance width="1162"/>
  <unicode hex="0138"/>
  <outline>
    <contour>
      <point x="119" y="0" type="line"/>
      <point x="222" y="0" type="line"/>
      <point x="222" y="493" type="line"/>
      <point x="351" y="594" type="line"/>
      <point x="909" y="0" type="line"/>
      <point x="1032" y="0" type="line"/>
      <point x="406" y="650" type="line"/>
      <point x="981" y="1174" type="line"/>
      <point x="852" y="1174" type="line"/>
      <point x="222" y="590" type="line"/>
      <point x="222" y="1857" type="line"/>
      <point x="119" y="1804" type="line"/>
    </contour>
  </outline>
</glyph>
<glyph name="uni0237" format="1">
  <advance width="540"/>
  <unicode hex="0237"/>
  <outline>
    <contour>
      <point x="160" y="-386" type="line"/>
      <point x="396" y="-327"/>
      <point x="428" y="-58"/>
      <point x="428" y="128" type="curve" smooth="yes"/>
      <point x="428" y="1174" type="line"/>
      <point x="324" y="1174" type="line"/>
      <point x="324" y="151" type="line" smooth="yes"/>
      <point x="324" y="-42"/>
      <point x="344" y="-205"/>
      <point x="148" y="-336" type="curve"/>
    </contour>
  </outline>
</glyph>
<glyph name="caron" format="1">
  <advance width="688"/>
  <unicode hex="02C7"/>
  <outline>
    <contour>
      <point x="338" y="-32" type="line"/>
      <point x="349" y="-32" type="line"/>
      <point x="660" y="334" type="line"/>
      <point x="625" y="453" type="line"/>
      <point x="344" y="65" type="line"/>
      <point x="63" y="453" type="line"/>
      <point x="28" y="334" type="line"/>
    </contour>
  </outline>
</glyph>
<glyph name="breve" format="1">
  <advance width="521"/>
  <unicode hex="02D8"/>
  <outline>
    <contour>
      <point x="262" y="670" type="curve" smooth="yes"/>
      <point x="402" y="670"/>
      <point x="482" y="782"/>
      <point x="476" y="887" type="curve"/>
      <point x="400" y="887" type="line"/>
      <point x="401" y="804"/>
      <point x="350" y="724"/>
      <point x="259" y="724" type="curve" smooth="yes"/>
      <point x="167" y="724"/>
      <point x="108" y="807"/>
      <point x="109" y="887" type="curve"/>
      <point x="33" y="887" type="line"/>
      <point x="27" y="775"/>
      <point x="116" y="670"/>
    </contour>
  </outline>
</glyph>
<glyph name="tilde" format="1">
  <advance width="838"/>
  <unicode hex="02DC"/>
  <outline>
    <contour>
      <point x="586" y="-83" type="curve" smooth="yes"/>
      <point x="719" y="-83"/>
      <point x="757" y="49"/>
      <point x="757" y="127" type="curve"/>
      <point x="635" y="127" type="line"/>
      <point x="635" y="112"/>
      <point x="633" y="12"/>
      <point x="575" y="12" type="curve" smooth="yes"/>
      <point x="452" y="12"/>
      <point x="410" y="123"/>
      <point x="249" y="128" type="curve"/>
      <point x="89" y="128"/>
      <point x="63" y="2"/>
      <point x="63" y="-90" type="curve"/>
      <point x="191" y="-90" type="line"/>
      <point x="191" y="-75"/>
      <point x="183" y="19"/>
      <point x="250" y="19" type="curve" smooth="yes"/>
      <point x="345" y="19"/>
      <point x="415" y="-83"/>
    </contour>
  </outline>
</glyph>
<glyph name="hungarumlaut" format="1">
  <advance width="710"/>
  <unicode hex="02DD"/>
  <outline>
    <contour>
      <point x="-55" y="-192" type="line"/>
      <point x="410" y="180" type="line"/>
      <point x="309" y="257" type="line"/>
      <point x="-80" y="-192" type="line"/>
    </contour>
    <contour>
      <point x="215" y="-192" type="line"/>
      <point x="638" y="180" type="line"/>
      <point x="542" y="257" type="line"/>
      <point x="196" y="-192" type="line"/>
    </contour>
  </outline>
</glyph>
<glyph name="uni030F" format="1">
  <advance width="73"/>
  <unicode hex="030F"/>
  <outline>
    <contour>
      <point x="413" y="-192" type="line"/>
      <point x="433" y="-192" type="line"/>
      <point x="319" y="418" type="line"/>
      <point x="113" y="356" type="line"/>
    </contour>
    <contour>
      <point x="717" y="-192" type="line"/>
      <point x="742" y="-192" type="line"/>
      <point x="585" y="418" type="line"/>
      <point x="375" y="356" type="line"/>
    </contour>
  </outline>
</glyph>
<glyph name="uni0311" format="1">
  <advance width="521"/>
  <unicode hex="0311"/>
  <outline>
    <contour>
      <point x="79" y="685" type="curve"/>
      <point x="109" y="685" type="line"/>
      <point x="108" y="758"/>
      <point x="167" y="833"/>
      <point x="259" y="833" type="curve" smooth="yes"/>
      <point x="350" y="833"/>
      <point x="401" y="759"/>
      <point x="400" y="685" type="curve"/>
      <point x="430" y="685" type="line"/>
      <point x="436" y="773"/>
      <point x="376" y="872"/>
      <point x="262" y="872" type="curve" smooth="yes"/>
      <point x="142" y="872"/>
      <point x="73" y="779"/>
    </contour>
  </outline>
</glyph>
<glyph name="uni0326" format="1">
  <advance width="415"/>
  <unicode hex="0326"/>
  <outline>
    <contour>
      <point x="145" y="-565" type="line"/>
      <point x="279" y="-528"/>
      <point x="307" y="-410"/>
      <point x="307" y="-302" type="curve" smooth="yes"/>
      <point x="307" y="-114" type="line"/>
      <point x="99" y="-114" type="line"/>
      <point x="99" y="-341" type="line"/>
      <point x="205" y="-341" type="line"/>
      <point x="206" y="-432"/>
      <point x="163" y="-462"/>
      <point x="100" y="-482" type="curve"/>
    </contour>
  </outline>
</glyph>
<glyph name="mu" format="1">
  <advance width="1161"/>
  <unicode hex="03BC"/>
  <outline>
    <contour>
      <point x="194" y="-185" type="line"/>
      <point x="194" y="165" type="line" smooth="yes"/>
      <point x="286" y="47"/>
      <point x="366" y="-23"/>
      <point x="493" y="-23" type="curve" smooth="yes"/>
      <point x="644" y="-23"/>
      <point x="805" y="36"/>
      <point x="952" y="171" type="curve"/>
      <point x="947" y="24" type="line"/>
      <point x="1039" y="24" type="line"/>
      <point x="1039" y="1173" type="line"/>
      <point x="908" y="1173" type="line"/>
      <point x="908" y="262" type="line"/>
      <point x="815" y="148"/>
      <point x="610" y="72"/>
      <point x="479" y="72" type="curve" smooth="yes"/>
      <point x="219" y="72"/>
      <point x="180" y="273"/>
      <point x="194" y="530" type="curve"/>
      <point x="194" y="1173" type="line"/>
      <point x="114" y="1173" type="line"/>
      <point x="114" y="-218" type="line"/>
    </contour>
  </outline>
</glyph>
<glyph name="endash" format="1">
  <advance width="552"/>
  <unicode hex="2013"/>
  <outline>
    <contour>
      <point x="105" y="545" type="line"/>
      <point x="453" y="545" type="line"/>
      <point x="453" y="626" type="line"/>
      <point x="105" y="626" type="line"/>
    </contour>
  </outline>
</glyph>
<glyph name="emdash" format="1">
  <advance width="726"/>
  <unicode hex="2014"/>
  <outline>
    <contour>
      <point x="105" y="545" type="line"/>
      <point x="626" y="545" type="line"/>
      <point x="626" y="626" type="line"/>
      <point x="105" y="626" type="line"/>
    </contour>
  </outline>
</glyph>
<glyph name="quoteleft" format="1">
  <advance width="443"/>
  <unicode hex="2018"/>
  <outline>
    <contour>
      <point x="122" y="1128" type="line"/>
      <point x="330" y="1128" type="line"/>
      <point x="330" y="1355" type="line"/>
      <point x="224" y="1355" type="line"/>
      <point x="222" y="1447"/>
      <point x="266" y="1477"/>
      <point x="329" y="1496" type="curve"/>
      <point x="284" y="1580" type="line"/>
      <point x="149" y="1542"/>
      <point x="122" y="1425"/>
      <point x="122" y="1316" type="curve" smooth="yes"/>
    </contour>
  </outline>
</glyph>
<glyph name="quoteright" format="1">
  <advance width="513"/>
  <unicode hex="2019"/>
  <outline>
    <contour>
      <point x="200" y="1128" type="line"/>
      <point x="331" y="1165"/>
      <point x="362" y="1281"/>
      <point x="362" y="1391" type="curve" smooth="yes"/>
      <point x="362" y="1580" type="line"/>
      <point x="154" y="1580" type="line"/>
      <point x="154" y="1352" type="line"/>
      <point x="260" y="1352" type="line"/>
      <point x="262" y="1261"/>
      <point x="218" y="1231"/>
      <point x="155" y="1211" type="curve"/>
    </contour>
  </outline>
</glyph>
<glyph name="quotesinglbase" format="1">
  <advance width="442"/>
  <unicode hex="201A"/>
  <outline>
    <contour>
      <point x="157" y="-224" type="line"/>
      <point x="291" y="-186"/>
      <point x="318" y="-69"/>
      <point x="318" y="39" type="curve" smooth="yes"/>
      <point x="318" y="228" type="line"/>
      <point x="111" y="228" type="line"/>
      <point x="111" y="0" type="line"/>
      <point x="217" y="0" type="line"/>
      <point x="218" y="-91"/>
      <point x="174" y="-121"/>
      <point x="112" y="-141" type="curve"/>
    </contour>
  </outline>
</glyph>
<glyph name="quotedblleft" format="1">
  <advance width="741"/>
  <unicode hex="201C"/>
  <outline>
    <contour>
      <point x="133" y="1174" type="line"/>
      <point x="340" y="1174" type="line"/>
      <point x="340" y="1402" type="line"/>
      <point x="235" y="1402" type="line"/>
      <point x="233" y="1495"/>
      <point x="275" y="1523"/>
      <point x="339" y="1542" type="curve"/>
      <point x="294" y="1626" type="line"/>
      <point x="160" y="1588"/>
      <point x="133" y="1471"/>
      <point x="133" y="1362" type="curve" smooth="yes"/>
    </contour>
    <contour>
      <point x="419" y="1174" type="line"/>
      <point x="626" y="1174" type="line"/>
      <point x="626" y="1402" type="line"/>
      <point x="521" y="1402" type="line"/>
      <point x="519" y="1495"/>
      <point x="561" y="1523"/>
      <point x="625" y="1542" type="curve"/>
      <point x="580" y="1626" type="line"/>
      <point x="446" y="1588"/>
      <point x="419" y="1471"/>
      <point x="419" y="1362" type="curve" smooth="yes"/>
    </contour>
  </outline>
</glyph>
<glyph name="quotedblright" format="1">
  <advance width="832"/>
  <unicode hex="201D"/>
  <outline>
    <contour>
      <point x="200" y="1128" type="line"/>
      <point x="331" y="1165"/>
      <point x="362" y="1281"/>
      <point x="362" y="1391" type="curve" smooth="yes"/>
      <point x="362" y="1580" type="line"/>
      <point x="154" y="1580" type="line"/>
      <point x="154" y="1352" type="line"/>
      <point x="260" y="1352" type="line"/>
      <point x="262" y="1261"/>
      <point x="218" y="1231"/>
      <point x="155" y="1211" type="curve"/>
    </contour>
    <contour>
      <point x="486" y="1128" type="line"/>
      <point x="617" y="1165"/>
      <point x="648" y="1281"/>
      <point x="648" y="1391" type="curve" smooth="yes"/>
      <point x="648" y="1580" type="line"/>
      <point x="440" y="1580" type="line"/>
      <point x="440" y="1352" type="line"/>
      <point x="546" y="1352" type="line"/>
      <point x="548" y="1261"/>
      <point x="504" y="1231"/>
      <point x="441" y="1211" type="curve"/>
    </contour>
  </outline>
</glyph>
<glyph name="quotedblbase" format="1">
  <advance width="759"/>
  <unicode hex="201E"/>
  <outline>
    <contour>
      <point x="164" y="-253" type="line"/>
      <point x="298" y="-216"/>
      <point x="325" y="-98"/>
      <point x="325" y="10" type="curve" smooth="yes"/>
      <point x="325" y="198" type="line"/>
      <point x="118" y="198" type="line"/>
      <point x="118" y="-29" type="line"/>
      <point x="224" y="-29" type="line"/>
      <point x="225" y="-120"/>
      <point x="181" y="-150"/>
      <point x="119" y="-170" type="curve"/>
    </contour>
    <contour>
      <point x="450" y="-253" type="line"/>
      <point x="584" y="-216"/>
      <point x="611" y="-98"/>
      <point x="611" y="10" type="curve" smooth="yes"/>
      <point x="611" y="198" type="line"/>
      <point x="404" y="198" type="line"/>
      <point x="404" y="-29" type="line"/>
      <point x="510" y="-29" type="line"/>
      <point x="511" y="-120"/>
      <point x="467" y="-150"/>
      <point x="405" y="-170" type="curve"/>
    </contour>
  </outline>
</glyph>
<glyph name="dagger" format="1">
  <advance width="1046"/>
  <unicode hex="2020"/>
  <outline>
    <contour>
      <point x="480" y="0" type="line"/>
      <point x="574" y="0" type="line"/>
      <point x="574" y="1044" type="line"/>
      <point x="862" y="1044" type="line"/>
      <point x="862" y="1117" type="line"/>
      <point x="577" y="1117" type="line"/>
      <point x="577" y="1375" type="line"/>
      <point x="478" y="1375" type="line"/>
      <point x="478" y="1117" type="line"/>
      <point x="183" y="1117" type="line"/>
      <point x="183" y="1044" type="line"/>
      <point x="480" y="1044" type="line"/>
    </contour>
  </outline>
</glyph>
<glyph name="guilsinglleft" format="1">
  <advance width="245"/>
  <unicode hex="2039"/>
  <outline>
    <contour>
      <point x="385" y="172" type="line"/>
      <point x="385" y="329" type="line"/>
      <point x="-9" y="568" type="line"/>
      <point x="385" y="798" type="line"/>
      <point x="385" y="955" type="line"/>
      <point x="-98" y="641" type="line"/>
      <point x="-98" y="484" type="line"/>
    </contour>
  </outline>
</glyph>
<glyph name="guilsinglright" format="1">
  <advance width="278"/>
  <unicode hex="203A"/>
  <outline>
    <contour>
      <point x="-121" y="172" type="line"/>
      <point x="362" y="484" type="line"/>
      <point x="362" y="641" type="line"/>
      <point x="-121" y="955" type="line"/>
      <point x="-121" y="798" type="line"/>
      <point x="276" y="568" type="line"/>
      <point x="-121" y="329" type="line"/>
    </contour>
  </outline>
</glyph>
<glyph name="fraction" format="1">
  <advance width="1486"/>
  <unicode hex="2044"/>
  <outline>
    <contour>
      <point x="89" y="-110" type="line"/>
      <point x="1379" y="1108" type="line"/>
      <point x="1343" y="1203" type="line"/>
      <point x="53" y="-14" type="line"/>
    </contour>
  </outline>
</glyph>
<glyph name="uni2074" format="1">
  <advance width="1090"/>
  <unicode hex="2074"/>
  <outline>
    <contour>
      <point x="715" y="413" type="line"/>
      <point x="807" y="450" type="line"/>
      <point x="807" y="731" type="line"/>
      <point x="964" y="731" type="line"/>
      <point x="964" y="792" type="line"/>
      <point x="807" y="792" type="line"/>
      <point x="807" y="1617" type="line"/>
      <point x="721" y="1635" type="line"/>
      <point x="133" y="813" type="line"/>
      <point x="149" y="731" type="line"/>
      <point x="715" y="731" type="line"/>
    </contour>
    <contour>
      <point x="213" y="790" type="line"/>
      <point x="416" y="1074"/>
      <point x="520" y="1203"/>
      <point x="715" y="1491" type="curve"/>
      <point x="715" y="790" type="line"/>
    </contour>
  </outline>
</glyph>
<glyph name="Euro" format="1">
  <advance width="775"/>
  <unicode hex="20AC"/>
  <outline>
    <contour>
      <point x="529" y="-39" type="curve" smooth="yes"/>
      <point x="594" y="-39"/>
      <point x="780" y="-33"/>
      <point x="882" y="34" type="curve"/>
      <point x="840" y="87" type="line"/>
      <point x="752" y="38"/>
      <point x="638" y="28"/>
      <point x="563" y="28" type="curve" smooth="yes"/>
      <point x="259" y="28"/>
      <point x="206" y="382"/>
      <point x="219" y="585" type="curve"/>
      <point x="584" y="585" type="line"/>
      <point x="584" y="671" type="line"/>
      <point x="224" y="671" type="line"/>
      <point x="225" y="701"/>
      <point x="222" y="741"/>
      <point x="228" y="784" type="curve"/>
      <point x="637" y="784" type="line"/>
      <point x="637" y="870" type="line"/>
      <point x="225" y="870" type="line"/>
      <point x="195" y="1116"/>
      <point x="294" y="1302"/>
      <point x="580" y="1302" type="curve" smooth="yes"/>
      <point x="626" y="1302"/>
      <point x="701" y="1319"/>
      <point x="823" y="1268" type="curve"/>
      <point x="844" y="1314" type="line"/>
      <point x="737" y="1365"/>
      <point x="622" y="1353"/>
      <point x="574" y="1353" type="curve"/>
      <point x="80" y="1353"/>
      <point x="139" y="1160"/>
      <point x="150" y="870" type="curve"/>
      <point x="-68" y="870" type="line"/>
      <point x="-68" y="784" type="line"/>
      <point x="128" y="784" type="line"/>
      <point x="129" y="798"/>
      <point x="124" y="644"/>
      <point x="124" y="671" type="curve"/>
      <point x="-53" y="671" type="line"/>
      <point x="-53" y="585" type="line"/>
      <point x="128" y="585" type="line"/>
      <point x="127" y="406"/>
      <point x="205" y="-39"/>
    </contour>
  </outline>
</glyph>
<glyph name="integral" format="1">
  <advance width="1295"/>
  <unicode hex="222B"/>
  <outline>
    <contour>
      <point x="296" y="-538" type="curve" smooth="yes"/>
      <point x="614" y="-538"/>
      <point x="615" y="-265"/>
      <point x="637" y="-52" type="curve" smooth="yes"/>
      <point x="765" y="1172" type="line" smooth="yes"/>
      <point x="780" y="1324"/>
      <point x="706" y="1577"/>
      <point x="988" y="1577" type="curve" smooth="yes"/>
      <point x="1049" y="1577"/>
      <point x="1100" y="1526"/>
      <point x="1135" y="1476" type="curve"/>
      <point x="1238" y="1532" type="line"/>
      <point x="1186" y="1596"/>
      <point x="1086" y="1657"/>
      <point x="1002" y="1657" type="curve" smooth="yes"/>
      <point x="684" y="1657"/>
      <point x="682" y="1385"/>
      <point x="661" y="1172" type="curve" smooth="yes"/>
      <point x="533" y="-52" type="line"/>
      <point x="518" y="-205"/>
      <point x="591" y="-457"/>
      <point x="310" y="-457" type="curve" smooth="yes"/>
      <point x="249" y="-457"/>
      <point x="198" y="-406"/>
      <point x="163" y="-357" type="curve"/>
      <point x="60" y="-412" type="line"/>
      <point x="112" y="-476"/>
      <point x="212" y="-538"/>
    </contour>
  </outline>
</glyph>
<glyph name=".notdef" format="1">
  <advance width="785"/>
  <outline>
    <contour>
      <point x="210" y="68" type="line"/>
      <point x="210" y="1297" type="line"/>
      <point x="618" y="1297" type="line"/>
      <point x="618" y="68" type="line"/>
    </contour>
    <contour>
      <point x="142" y="0" type="line"/>
      <point x="686" y="0" type="line"/>
      <point x="686" y="1365" type="line"/>
      <point x="142" y="1365" type="line"/>
    </contour>
  </outline>
</glyph>
<glyph name="ff" format="1">
  <advance width="1356"/>
  <outline>
    <contour>
      <point x="236" y="0" type="line"/>
      <point x="340" y="0" type="line"/>
      <point x="340" y="1096" type="line"/>
      <point x="870" y="1096" type="line"/>
      <point x="870" y="0" type="line"/>
      <point x="974" y="0" type="line"/>
      <point x="974" y="1096" type="line"/>
      <point x="1358" y="1096" type="line"/>
      <point x="1358" y="1172" type="line"/>
      <point x="974" y="1172" type="line"/>
      <point x="974" y="1324"/>
      <point x="872" y="1577"/>
      <point x="1154" y="1577" type="curve" smooth="yes"/>
      <point x="1215" y="1577"/>
      <point x="1272" y="1526"/>
      <point x="1312" y="1476" type="curve"/>
      <point x="1409" y="1532" type="line"/>
      <point x="1350" y="1596"/>
      <point x="1244" y="1657"/>
      <point x="1160" y="1657" type="curve" smooth="yes"/>
      <point x="841" y="1657"/>
      <point x="870" y="1385"/>
      <point x="870" y="1172" type="curve"/>
      <point x="340" y="1172" type="line"/>
      <point x="340" y="1324"/>
      <point x="238" y="1577"/>
      <point x="520" y="1577" type="curve" smooth="yes"/>
      <point x="581" y="1577"/>
      <point x="638" y="1526"/>
      <point x="678" y="1476" type="curve"/>
      <point x="775" y="1532" type="line"/>
      <point x="716" y="1596"/>
      <point x="609" y="1657"/>
      <point x="526" y="1657" type="curve" smooth="yes"/>
      <point x="207" y="1657"/>
      <point x="236" y="1385"/>
      <point x="236" y="1172" type="curve"/>
      <point x="38" y="1172" type="line"/>
      <point x="38" y="1096" type="line"/>
      <point x="236" y="1096" type="line"/>
    </contour>
  </outline>
</glyph>
<glyph name="ffi" format="1">
  <advance width="1787"/>
  <outline>
    <contour>
      <point x="236" y="0" type="line"/>
      <point x="340" y="0" type="line"/>
      <point x="340" y="1096" type="line"/>
      <point x="893" y="1096" type="line"/>
      <point x="893" y="0" type="line"/>
      <point x="997" y="0" type="line"/>
      <point x="997" y="1096" type="line"/>
      <point x="1552" y="1096" type="line"/>
      <point x="1552" y="0" type="line"/>
      <point x="1643" y="0" type="line"/>
      <point x="1643" y="1172" type="line"/>
      <point x="997" y="1172" type="line"/>
      <point x="997" y="1324"/>
      <point x="895" y="1577"/>
      <point x="1177" y="1577" type="curve" smooth="yes"/>
      <point x="1238" y="1577"/>
      <point x="1294" y="1526"/>
      <point x="1335" y="1476" type="curve"/>
      <point x="1432" y="1532" type="line"/>
      <point x="1373" y="1596"/>
      <point x="1266" y="1657"/>
      <point x="1183" y="1657" type="curve" smooth="yes"/>
      <point x="864" y="1657"/>
      <point x="893" y="1385"/>
      <point x="893" y="1172" type="curve"/>
      <point x="340" y="1172" type="line"/>
      <point x="340" y="1324"/>
      <point x="238" y="1577"/>
      <point x="520" y="1577" type="curve" smooth="yes"/>
      <point x="581" y="1577"/>
      <point x="638" y="1526"/>
      <point x="678" y="1476" type="curve"/>
      <point x="775" y="1532" type="line"/>
      <point x="716" y="1596"/>
      <point x="609" y="1657"/>
      <point x="526" y="1657" type="curve" smooth="yes"/>
      <point x="207" y="1657"/>
      <point x="236" y="1385"/>
      <point x="236" y="1172" type="curve"/>
      <point x="38" y="1172" type="line"/>
      <point x="38" y="1096" type="line"/>
      <point x="236" y="1096" type="line"/>
    </contour>
    <contour>
      <point x="1603" y="1352" type="curve" smooth="yes"/>
      <point x="1645" y="1352"/>
      <point x="1664" y="1388"/>
      <point x="1664" y="1424" type="curve" smooth="yes"/>
      <point x="1664" y="1461"/>
      <point x="1645" y="1497"/>
      <point x="1603" y="1497" type="curve" smooth="yes"/>
      <point x="1565" y="1497"/>
      <point x="1535" y="1461"/>
      <point x="1535" y="1424" type="curve" smooth="yes"/>
      <point x="1535" y="1385"/>
      <point x="1565" y="1352"/>
    </contour>
  </outline>
</glyph>
<glyph name="fj" format="1">
  <advance width="1090"/>
  <outline>
    <contour>
      <point x="676" y="-386" type="line"/>
      <point x="912" y="-327"/>
      <point x="944" y="-58"/>
      <point x="944" y="128" type="curve" smooth="yes"/>
      <point x="944" y="1172" type="line"/>
      <point x="340" y="1172" type="line"/>
      <point x="340" y="1432"/>
      <point x="332" y="1597"/>
      <point x="520" y="1597" type="curve" smooth="yes"/>
      <point x="555" y="1597"/>
      <point x="615" y="1569"/>
      <point x="704" y="1501" type="curve"/>
      <point x="787" y="1549" type="line"/>
      <point x="667" y="1631"/>
      <point x="576" y="1667"/>
      <point x="509" y="1667" type="curve" smooth="yes"/>
      <point x="298" y="1667"/>
      <point x="236" y="1494"/>
      <point x="236" y="1172" type="curve"/>
      <point x="38" y="1172" type="line"/>
      <point x="38" y="1096" type="line"/>
      <point x="236" y="1096" type="line"/>
      <point x="236" y="0" type="line"/>
      <point x="340" y="0" type="line"/>
      <point x="340" y="1096" type="line"/>
      <point x="840" y="1096" type="line"/>
      <point x="840" y="151" type="line" smooth="yes"/>
      <point x="840" y="-42"/>
      <point x="860" y="-205"/>
      <point x="664" y="-336" type="curve"/>
    </contour>
    <contour>
      <point x="891" y="1352" type="curve" smooth="yes"/>
      <point x="932" y="1352"/>
      <point x="956" y="1388"/>
      <point x="956" y="1424" type="curve" smooth="yes"/>
      <point x="956" y="1461"/>
      <point x="932" y="1497"/>
      <point x="891" y="1497" type="curve" smooth="yes"/>
      <point x="853" y="1497"/>
      <point x="821" y="1460"/>
      <point x="821" y="1424" type="curve" smooth="yes"/>
      <point x="821" y="1384"/>
      <point x="853" y="1352"/>
    </contour>
  </outline>
</glyph>
